<svg width="40" height="40" viewBox="0 0 40 40" fill="none" xmlns="http://www.w3.org/2000/svg">
<g clip-path="url(#clip0_0_241)">
<path d="M28.1605 38.0948C27.9845 38.0948 27.8189 38.0637 27.6534 37.9913C22.044 35.6627 16.6314 31.9887 12.0052 27.3626C7.60678 22.9641 4.04662 17.8205 1.70768 12.4906L1.68698 12.4596C1.42825 11.9421 1.53174 11.3212 1.93537 10.9175C1.95607 10.8968 1.97676 10.8761 1.99746 10.8554L2.04921 10.8037C5.48517 7.7817 7.9897 5.56695 8.35193 5.21508C8.56926 4.9667 8.87974 4.80111 9.23162 4.77006C9.72838 4.71831 10.2251 4.95635 10.4942 5.39102L15.3377 13.0598C15.5447 13.391 15.5964 13.7946 15.4826 14.1672C15.3687 14.5398 15.0997 14.8399 14.7478 15.0055L12.4295 16.0301C13.8991 18.1413 15.5654 20.1388 17.3972 21.9706C19.4257 23.999 21.6197 25.7998 23.938 27.3522L25.0246 24.8994C25.1799 24.5475 25.4903 24.2785 25.8629 24.1646C26.2355 24.0508 26.6391 24.1025 26.9703 24.3095L34.6391 29.153C35.0634 29.4221 35.3015 29.9085 35.2601 30.4156C35.229 30.7571 35.0634 31.0676 34.8047 31.2849C34.3597 31.7403 31.1411 35.3936 29.1747 37.6394C28.916 37.9395 28.5434 38.0948 28.1708 38.0948H28.1605Z" fill="#487CFF"/>
<path d="M28.1605 39.6368C27.7776 39.6368 27.405 39.5643 27.0532 39.4195C21.2575 37.0184 15.6793 33.2202 10.9083 28.4596C6.39597 23.9369 2.73232 18.6588 0.320937 13.184C0.320937 13.1737 0.310588 13.1633 0.300239 13.153C-0.258623 12.0352 -0.0412877 10.7002 0.838402 9.8205C0.8591 9.7998 0.952244 9.717 0.972943 9.6963C1.02469 9.64456 1.07644 9.60316 1.12818 9.56176C4.83323 6.31209 6.86169 4.50096 7.23426 4.14909C7.71033 3.63162 8.36234 3.31079 9.06609 3.23835C10.1424 3.12451 11.2187 3.65232 11.7983 4.57341L16.6418 12.2422C17.0971 12.9563 17.211 13.8257 16.9626 14.6329C16.7142 15.4402 16.1347 16.0922 15.3688 16.4337L14.8203 16.6821C15.9484 18.162 17.1799 19.5695 18.4943 20.8839C19.9949 22.3845 21.5991 23.7713 23.2757 25.0133L23.5965 24.2888C23.938 23.523 24.59 22.933 25.3973 22.695C26.2045 22.4466 27.0635 22.5708 27.7776 23.0158L35.4464 27.8593C36.3779 28.4492 36.885 29.4945 36.7815 30.5915C36.709 31.2953 36.3882 31.9473 35.8707 32.4233C35.405 32.9201 32.7142 35.9524 30.3235 38.6847C29.775 39.3056 28.9781 39.6678 28.1502 39.6678L28.1605 39.6368ZM3.15664 11.9111C5.41279 17.0443 8.84875 22.0016 13.1023 26.2552C17.5525 30.695 22.7271 34.2345 28.1088 36.4906C28.7918 35.7144 32.7142 31.2539 33.5836 30.3121L26.3494 25.7481L25.3662 27.9731C25.1799 28.3975 24.8177 28.7079 24.383 28.8425C23.938 28.9667 23.4723 28.8942 23.0894 28.6459C20.6883 27.0314 18.4115 25.1581 16.3209 23.0676C14.427 21.1737 12.6987 19.1038 11.1773 16.9201C10.9083 16.5372 10.8358 16.0611 10.96 15.6161C11.0842 15.1711 11.405 14.7985 11.8293 14.6122L13.9199 13.6911L9.35587 6.45698C8.62107 7.14003 5.65082 9.7584 3.17734 11.9317L3.15664 11.9111Z" fill="#1C2338"/>
<path d="M38.4477 17.7998C37.5887 17.7998 36.8953 17.1064 36.8953 16.2474C36.8953 9.0443 31.0376 3.19695 23.8449 3.19695C22.9859 3.19695 22.2925 2.50355 22.2925 1.64456C22.2925 0.785565 22.9859 0.0921631 23.8449 0.0921631C32.7556 0.0921631 40.0001 7.33666 40.0001 16.2474C40.0001 17.1064 39.3067 17.7998 38.4477 17.7998Z" fill="#1C2338"/>
<path d="M32.2069 17.7997C31.348 17.7997 30.6546 17.1063 30.6546 16.2474C30.6546 12.4906 27.6015 9.42717 23.8344 9.42717C22.9754 9.42717 22.282 8.73377 22.282 7.87478C22.282 7.01579 22.9754 6.32239 23.8344 6.32239C29.3091 6.32239 33.7593 10.7726 33.7593 16.2474C33.7593 17.1063 33.0659 17.7997 32.2069 17.7997Z" fill="#1C2338"/>
</g>
<defs>
<clipPath id="clip0_0_241">
<rect width="40" height="39.5446" fill="white" transform="translate(0 0.0921631)"/>
</clipPath>
</defs>
</svg>
