<svg width="40" height="41" viewBox="0 0 40 41" fill="none" xmlns="http://www.w3.org/2000/svg">
<g clip-path="url(#clip0_0_230)">
<path d="M32.3077 40.114H7.69231C3.44615 40.114 0 36.6679 0 32.4217V7.80632C0 3.56017 3.44615 0.114014 7.69231 0.114014H32.3077C36.5538 0.114014 40 3.56017 40 7.80632V32.4217C40 36.6679 36.5538 40.114 32.3077 40.114ZM7.69231 3.19094C5.14872 3.19094 3.07692 5.26273 3.07692 7.80632V32.4217C3.07692 34.9653 5.14872 37.0371 7.69231 37.0371H32.3077C34.8513 37.0371 36.9231 34.9653 36.9231 32.4217V7.80632C36.9231 5.26273 34.8513 3.19094 32.3077 3.19094H7.69231Z" fill="#1C2338"/>
<path fill-rule="evenodd" clip-rule="evenodd" d="M19.9999 10.3807C18.5845 10.3807 17.4358 11.5295 17.4358 12.9551C17.4358 14.3807 18.5845 15.5295 19.9999 15.5295C21.4153 15.5295 22.564 14.3807 22.564 12.9551C22.564 11.5295 21.4153 10.3807 19.9999 10.3807Z" fill="#487CFF"/>
<path d="M20 17.0781C17.7334 17.0781 15.8975 15.2319 15.8975 12.9652C15.8975 10.6986 17.7334 8.85242 20 8.85242C22.2667 8.85242 24.1026 10.6986 24.1026 12.9652C24.1026 15.2319 22.2667 17.0781 20 17.0781ZM20 11.9293C19.4359 11.9293 18.9744 12.3909 18.9744 12.9652C18.9744 13.5396 19.4359 14.0011 20 14.0011C20.5641 14.0011 21.0257 13.5396 21.0257 12.9652C21.0257 12.3909 20.5641 11.9293 20 11.9293Z" fill="#1C2338"/>
<path d="M22.5641 31.3858H17.4359C16.5846 31.3858 15.8975 30.6986 15.8975 29.8473C15.8975 28.996 16.5846 28.3088 17.4359 28.3088H22.5641C23.4154 28.3088 24.1026 28.996 24.1026 29.8473C24.1026 30.6986 23.4154 31.3858 22.5641 31.3858Z" fill="#1C2338"/>
<path d="M20 31.3858C19.1487 31.3858 18.4615 30.6986 18.4615 29.8474V21.6115H17.5897C16.7384 21.6115 16.0513 20.9243 16.0513 20.073C16.0513 19.2217 16.7384 18.5345 17.5897 18.5345H20C20.8513 18.5345 21.5384 19.2217 21.5384 20.073V29.8474C21.5384 30.6986 20.8513 31.3858 20 31.3858Z" fill="#1C2338"/>
</g>
<defs>
<clipPath id="clip0_0_230">
<rect width="40" height="40" fill="white" transform="translate(0 0.114014)"/>
</clipPath>
</defs>
</svg>
