<svg width="284" height="172" viewBox="0 0 284 172" fill="none" xmlns="http://www.w3.org/2000/svg">
<g clip-path="url(#clip0_157_605)">
<path d="M216.918 7.25269H70.2532C68.0412 7.25269 66.248 9.04584 66.248 11.2578V110.402C66.248 112.613 68.0412 114.407 70.2532 114.407H216.918C219.13 114.407 220.923 112.613 220.923 110.402V11.2578C220.923 9.04584 219.13 7.25269 216.918 7.25269Z" fill="#DEE8F9"/>
<path d="M70.2532 7.25269H216.918C219.127 7.25269 220.923 9.04832 220.923 11.2578V18.7174H66.248V11.2578C66.248 9.04832 68.0437 7.25269 70.2532 7.25269Z" fill="#091047"/>
<path d="M73.5507 15.4464C74.8299 15.4464 75.867 14.4094 75.867 13.1301C75.867 11.8509 74.8299 10.8138 73.5507 10.8138C72.2714 10.8138 71.2344 11.8509 71.2344 13.1301C71.2344 14.4094 72.2714 15.4464 73.5507 15.4464Z" fill="#FDFDFF"/>
<path d="M79.5849 15.4464C80.8641 15.4464 81.9012 14.4094 81.9012 13.1301C81.9012 11.8509 80.8641 10.8138 79.5849 10.8138C78.3056 10.8138 77.2686 11.8509 77.2686 13.1301C77.2686 14.4094 78.3056 15.4464 79.5849 15.4464Z" fill="#FDFDFF"/>
<path d="M85.6161 15.4464C86.8954 15.4464 87.9324 14.4094 87.9324 13.1301C87.9324 11.8509 86.8954 10.8138 85.6161 10.8138C84.3368 10.8138 83.2998 11.8509 83.2998 13.1301C83.2998 14.4094 84.3368 15.4464 85.6161 15.4464Z" fill="#FDFDFF"/>
<path d="M228.149 155.853C220.67 155.853 213.517 150.96 208.16 142.039C202.443 132.516 190.281 133.171 190.161 133.177L190.014 130.844C190.571 130.811 203.725 130.107 210.166 140.834C215.717 150.079 223.23 154.618 230.783 153.28C237.311 152.125 242.778 146.598 244.083 139.842C245.531 132.326 249.77 126.345 256.342 122.544C263.231 118.559 272.479 116.94 283.834 117.724L283.674 120.054C262.42 118.585 249.179 125.768 246.379 140.283C244.897 147.97 238.653 154.261 231.193 155.579C230.178 155.76 229.164 155.846 228.156 155.846L228.149 155.853Z" fill="#DEE8F9"/>
<path d="M185.587 170.669C199.185 170.669 210.209 169.5 210.209 168.059C210.209 166.617 199.185 165.449 185.587 165.449C171.989 165.449 160.966 166.617 160.966 168.059C160.966 169.5 171.989 170.669 185.587 170.669Z" fill="#DEE8F9"/>
<path d="M181.169 138.413L175.548 138.376L175.633 125.593L181.253 125.63C184.644 125.653 187.383 128.425 187.36 131.819L187.357 132.306C187.335 135.697 184.563 138.436 181.169 138.413Z" fill="#EAEEF9"/>
<path d="M185.551 134.369L189.816 133.908L189.846 129.306L185.587 128.788L185.551 134.369Z" fill="#EEEAFE"/>
<path d="M188.819 133.132L193.385 133.163L193.404 130.292L188.838 130.262L188.819 133.132Z" fill="#EEEAFE"/>
<path d="M192.603 131.157L193.271 131.162L193.284 129.109L192.617 129.105L192.603 131.157Z" fill="#EEEAFE"/>
<path d="M191.391 131.152L192.059 131.156L192.072 129.104L191.405 129.099L191.391 131.152Z" fill="#EEEAFE"/>
<path d="M190.176 131.143L190.844 131.148L190.857 129.095L190.19 129.091L190.176 131.143Z" fill="#EEEAFE"/>
<path d="M192.582 134.078L193.25 134.082L193.264 132.03L192.596 132.025L192.582 134.078Z" fill="#EEEAFE"/>
<path d="M191.371 134.069L192.038 134.074L192.052 132.021L191.384 132.017L191.371 134.069Z" fill="#EEEAFE"/>
<path d="M190.156 134.061L190.823 134.065L190.837 132.012L190.169 132.008L190.156 134.061Z" fill="#EEEAFE"/>
<path d="M163.576 122.06L172.338 122.116C172.618 122.116 172.882 122.28 172.995 122.537C173.339 123.305 174.497 124.947 178.259 125.771C181.419 126.462 181.546 137.383 178.429 138.25C174.878 139.238 173.713 141.498 173.362 142.496C173.259 142.79 172.982 142.983 172.671 142.98L163.079 142.916L163.573 122.06H163.576Z" fill="#DEE4F9"/>
<path d="M162.064 128.605L149.889 128.525C149.051 128.518 148.373 127.834 148.38 126.996C148.387 126.158 149.071 125.481 149.909 125.487L162.084 125.568L162.064 128.605Z" fill="#3B4B9B"/>
<path d="M161.994 138.941L149.818 138.861C148.98 138.855 148.303 138.17 148.31 137.333C148.316 136.495 149.001 135.817 149.838 135.824L162.014 135.904L161.994 138.941Z" fill="#3B4B9B"/>
<path d="M156.854 132.446C156.894 126.309 158.463 121.289 160.729 120.801L160.973 120.755L166.13 120.788C166.246 120.788 166.36 120.818 166.467 120.868C166.907 121.065 167.147 121.549 167.094 122.03C166.927 123.562 165.779 127.871 165.752 131.926C165.726 136.198 166.807 141.375 166.931 143.017C166.961 143.437 166.77 143.851 166.41 144.075C166.273 144.158 166.126 144.218 165.976 144.218L160.819 144.185H160.586C158.326 143.667 156.814 138.581 156.854 132.44V132.446Z" fill="#EBEDFC"/>
<path d="M163.249 133.394L156.921 133.351C156.921 133.351 156.854 132.476 156.858 132.183C156.858 131.866 156.951 130.914 156.951 130.914L163.266 130.954C163.937 130.958 164.481 131.509 164.474 132.179C164.471 132.85 163.92 133.394 163.249 133.388V133.394Z" fill="#6F789B"/>
<path d="M182.116 128.154C182.116 128.154 184.473 136.755 184.916 137.91C184.916 137.91 183.668 141.438 183.688 142.072C183.708 142.706 188.862 142.883 188.862 142.883L188.341 134.065L182.116 128.151V128.154Z" fill="#3B2B5B"/>
<path d="M172.241 166.784C172.504 166.193 173.316 166.73 173.823 166.964C173.649 166.957 173.422 166.964 173.569 167.167C173.783 167.464 174.444 167.825 174.767 167.742C174.724 167.958 174.587 168.199 174.48 168.352C174.343 168.553 172.154 166.977 172.241 166.784Z" fill="#30193B"/>
<path d="M173.566 167.167C173.419 166.964 173.459 166.777 173.78 166.944C174.063 167.091 174.34 167.147 174.4 167.161C174.561 167.194 174.747 167.014 174.747 167.014L174.981 167.184C174.981 167.184 174.781 167.681 174.767 167.745C174.444 167.828 173.783 167.468 173.569 167.171L173.566 167.167Z" fill="#FF97A6"/>
<path d="M204.129 166.844C203.501 166.497 204.199 165.672 204.462 165.138C204.436 165.328 204.422 165.572 204.623 165.429C204.916 165.218 205.32 164.524 205.277 164.167C205.47 164.23 205.674 164.394 205.804 164.524C205.971 164.688 204.302 166.941 204.129 166.847V166.844Z" fill="#30193B"/>
<path d="M204.623 165.429C204.422 165.572 204.252 165.515 204.439 165.182C204.606 164.885 204.686 164.588 204.703 164.521C204.749 164.351 204.522 163.993 204.522 163.993L204.783 163.89C204.783 163.89 205.217 164.144 205.273 164.164C205.317 164.521 204.913 165.215 204.619 165.425L204.623 165.429Z" fill="#FF97A6"/>
<path d="M193.381 138.357C194.419 139.499 194.516 142.896 194.352 145.894C194.175 149.124 193.688 151.925 193.688 151.925C193.688 151.925 204.959 163.496 204.872 163.723L204.258 164.788C204.232 164.858 193.428 158.954 190.721 155.112C189.443 153.3 187.19 146.531 186.626 141.017C186.439 139.195 185.438 135.133 185.438 135.133C185.438 135.133 188.121 134.192 190.467 135.136C191.662 135.617 192.904 137.83 193.384 138.357H193.381Z" fill="#6675BF"/>
<path d="M194.849 142.709C193.167 147.372 185.217 152.542 185.217 152.542C185.217 152.542 183.448 156.077 182.814 157.358C182.056 158.884 176.776 166.046 175.788 167.475C175.705 167.595 175.541 167.625 175.418 167.545L174.713 167.091C174.65 167.064 174.597 167.014 174.563 166.951C173.929 165.749 179.543 154.999 181.616 150.226C182.36 148.51 187.79 139.128 187.79 139.128C187.79 139.128 187.723 137.857 187.026 134.996C187.817 134.946 190.043 131.772 192.233 133.935C194.662 136.338 196.528 138.05 194.853 142.706L194.849 142.709Z" fill="#566FAF"/>
<path d="M182.987 129.67C181.405 125.638 183.248 125.785 183.465 125.634C184.609 124.84 186.078 125.437 187.002 125.905C189.379 127.103 191.892 133.01 192.229 133.938C190.707 135.157 186.585 136.001 185.597 135.811C185.591 135.727 185.597 135.43 185.067 134.125C184.065 131.669 183.732 131.559 182.987 129.67Z" fill="#FFE5B0"/>
<path d="M176.38 123.051C174.898 121.849 176.463 121.953 178.459 122.413C179.28 122.604 180.999 122.937 182.441 123.425C183.689 123.845 186.319 125.474 186.319 125.474L184.13 126.312C184.13 126.312 179.554 125.631 176.38 123.054V123.051Z" fill="#3B2B5B"/>
<path d="M171.48 121.122C173.199 121.439 175.485 121.856 176.643 122.127C179.76 122.854 178.692 124.343 177.157 124.7C173.916 125.454 171.206 124.576 170.335 124.229C169.574 123.925 168.92 121.729 168.92 121.729C168.92 121.729 170.021 120.852 171.48 121.122Z" fill="#3B2B5B"/>
<path d="M169.17 122.13C169.17 122.13 168.786 121.743 168.446 121.736C168.125 121.729 167.608 121.996 167.588 122.04C167.528 122.167 168.035 121.97 168.035 121.97C168.035 121.97 167.411 122.193 167.448 122.33C167.465 122.393 167.685 122.33 167.685 122.33C167.685 122.33 167.588 122.323 167.631 122.434C167.671 122.544 168.122 122.403 168.269 122.4C168.412 122.397 168.83 122.484 169.12 122.49C169.227 122.49 169.297 122.36 169.17 122.133V122.13Z" fill="#FF97A6"/>
<path d="M173.86 142.539C173.86 142.539 173.332 143.33 172.942 143.354C172.521 143.38 172.061 143.354 172.037 143.103C172.021 142.933 172.658 142.763 172.812 142.676C173.172 142.473 173.409 142.042 173.766 142.019C173.9 142.009 173.997 142.252 173.856 142.539H173.86Z" fill="#FF97A6"/>
<path d="M182.67 138.444C180.444 139.949 179.99 136.795 179.99 136.795L187.126 129.042C187.446 128.668 187.947 128.498 188.428 128.598C189.366 128.795 189.853 129.84 189.392 130.681C188.137 132.99 185.12 136.792 182.67 138.444Z" fill="#30193B"/>
<path d="M183.756 136.678C182.147 139.562 176.807 144.702 174.484 143.51C173.62 143.067 173.473 141.785 173.473 141.785L180.792 136.184C180.792 136.184 185.428 133.688 183.756 136.682V136.678Z" fill="#30193B"/>
<path d="M182.878 126.215C183.472 125.147 185.531 124.987 186.589 125.604C190.347 127.794 192.223 133.835 192.223 133.835L193.759 135.51C195.815 137.663 195.901 140.35 195.901 140.35C193.635 142.416 188.472 141.909 188.288 141.805C188.105 141.702 188.068 138.07 188.068 138.07C188.068 138.07 185.121 133.771 184.704 132.133C184.286 130.491 184.877 128.375 184.877 128.375C183.863 126.369 182.878 126.215 182.878 126.215Z" fill="#30193B"/>
<path d="M183.331 126.422C183.331 126.422 182.233 127.463 182.991 129.669C182.991 129.669 181.395 127.447 181.656 126.021C181.916 124.596 183.334 126.422 183.334 126.422H183.331Z" fill="#3B2B5B"/>
<path d="M183.398 125.958C183.398 125.958 184.199 125.728 184.82 126.756C185.441 127.784 184.887 128.585 184.643 129.573C184.643 129.573 184.617 128.107 184.44 127.674C184.263 127.24 183.398 125.958 183.398 125.958Z" fill="#3B2B5B"/>
<path d="M183.008 125.257C183.008 125.257 184.149 126.919 184.156 127.17C184.163 127.42 183.939 127.87 183.495 127.537C183.051 127.203 182.44 125.547 182.44 125.547L183.004 125.254L183.008 125.257Z" fill="#FF97A6"/>
<path d="M183.668 126.265C183.622 126.612 183.418 126.989 183.071 126.963C182.894 126.642 182.727 126.265 182.61 125.981L183.265 125.641C183.425 125.881 183.495 125.978 183.672 126.265H183.668Z" fill="#C95D77"/>
<path d="M181.062 126.188C180.969 126.068 180.865 125.621 180.782 125.164C180.668 124.543 180.975 123.982 181.653 123.835C181.807 123.802 182.768 123.739 183.098 123.872C183.459 124.019 183.559 124.476 183.639 124.817C183.719 125.154 183.742 125.791 183.595 126.118C183.462 126.419 182.958 126.762 182.648 126.819C181.71 126.993 181.396 126.806 181.066 126.188H181.062Z" fill="#FF97A6"/>
<path d="M168.877 122.32C168.877 122.32 167.979 122.62 168.213 122.684C168.446 122.747 169.12 122.49 169.12 122.49L168.877 122.323V122.32Z" fill="#FF97A6"/>
<path d="M173.261 142.689C173.261 142.689 172.137 142.649 172.28 142.496C172.424 142.346 173.455 142.209 173.455 142.209L173.261 142.689Z" fill="#FF97A6"/>
<path d="M179.783 124.076C179.783 124.076 180.064 124.937 181.202 124.85C182.34 124.763 182.914 124.75 182.914 124.75L183.591 126.118C183.591 126.118 184.486 125.464 184.192 124.45C183.898 123.435 179.783 124.079 179.783 124.079V124.076Z" fill="#295A6E"/>
<path d="M181.356 124.099L181.283 124.346C181.262 124.416 181.303 124.486 181.369 124.506C181.439 124.526 181.509 124.486 181.529 124.419L181.603 124.172L181.356 124.099ZM181.393 124.433C181.366 124.426 181.349 124.396 181.359 124.369C181.366 124.343 181.396 124.326 181.423 124.336C181.449 124.343 181.466 124.373 181.456 124.399C181.449 124.426 181.419 124.443 181.393 124.433Z" fill="#FD9E38"/>
<path d="M183.008 124.583L183.175 125.127C183.185 125.164 183.215 125.194 183.255 125.204L183.906 125.377V125.511C183.906 125.511 184.236 125.374 184.333 125.204C184.43 125.033 183.008 124.586 183.008 124.586V124.583Z" fill="#3B2B5B"/>
<path d="M179.15 123.982C179.15 123.982 178.896 124.192 180.555 124.296C180.672 124.303 180.788 124.299 180.905 124.286C181.229 124.246 181.993 124.186 182.531 124.433C183.228 124.757 183.061 124.93 183.582 125.107C184.106 125.284 184.61 125.337 184.653 125.227C184.653 125.227 184.67 125.19 184.537 125.14L184.623 124.56L184.55 124.463C184.55 124.463 184.964 122.444 183.252 121.88C181.539 121.315 180.955 122.153 180.648 122.544C180.445 122.801 180.221 123.261 180.094 123.542C180.031 123.685 179.894 123.782 179.74 123.799C179.517 123.825 179.213 123.879 179.146 123.986L179.15 123.982Z" fill="#FFCB48"/>
<path d="M184.593 124.513C184.593 124.513 184.022 124.586 183.034 124.052C182.046 123.518 181.739 123.712 181.219 123.625C180.698 123.538 180.441 123.515 180.441 123.515C180.441 123.515 180.094 123.845 179.997 123.879C179.997 123.879 180.301 124.176 181.259 124.156C182.217 124.132 182.507 124.229 182.844 124.446C183.181 124.663 183.288 124.913 183.602 125.013C183.915 125.114 184.476 125.21 184.536 125.137C184.536 125.137 184.633 124.57 184.593 124.513Z" fill="#FD9E38"/>
<path d="M180.432 124.076L180.552 123.752C180.565 123.718 180.602 123.698 180.635 123.705L180.876 123.755C180.916 123.765 180.942 123.805 180.932 123.845L180.862 124.146C180.862 124.146 180.632 124.159 180.432 124.076Z" fill="#FFCB48"/>
<path d="M181.399 122.073C181.666 121.92 181.97 121.833 182.28 121.799C182.437 121.783 182.594 121.789 182.751 121.809C182.907 121.829 183.061 121.883 183.204 121.933C183.348 121.99 183.492 122.053 183.628 122.13C183.762 122.21 183.895 122.303 184.006 122.417C184.232 122.64 184.373 122.931 184.453 123.225C184.306 122.958 184.142 122.701 183.919 122.51C183.695 122.32 183.428 122.19 183.148 122.086C183.008 122.033 182.871 121.99 182.724 121.963C182.58 121.936 182.434 121.926 182.283 121.926C181.986 121.933 181.689 121.983 181.396 122.073H181.399Z" fill="#FD9E38"/>
<path d="M41.3463 165.836C39.2002 165.836 36.914 165.439 34.6778 164.514C30.6326 162.839 23.6236 157.999 22.1083 144.415C20.4028 129.142 0.330423 130.037 0.123492 130.047L0 127.714C0.226957 127.7 5.62053 127.437 11.3278 129.266C19.0878 131.749 23.6203 136.899 24.428 144.155C25.743 155.923 31.2133 160.549 35.5689 162.355C40.6287 164.454 45.8955 163.463 48.4821 161.397C52.2836 158.36 53.0914 153.336 53.5753 150.336C53.6654 149.769 53.7455 149.278 53.8323 148.861C56.3622 136.939 63.4046 138.19 70.8641 139.512C76.8251 140.57 83.5837 141.768 90.526 137.62L91.7242 139.626C84.0343 144.221 76.5047 142.886 70.4569 141.812C62.8005 140.453 58.1812 139.632 56.1186 149.345C56.0418 149.705 55.9684 150.169 55.8816 150.706C55.3809 153.824 54.4498 159.624 49.9406 163.222C48.0015 164.771 44.8608 165.836 41.343 165.836H41.3463Z" fill="#DEE8F9"/>
<path d="M97.3281 171.53C106.771 171.53 114.427 170.361 114.427 168.92C114.427 167.478 106.771 166.31 97.3281 166.31C87.8848 166.31 80.2295 167.478 80.2295 168.92C80.2295 170.361 87.8848 171.53 97.3281 171.53Z" fill="#DEE8F9"/>
<path d="M90.5725 131.625C91.0364 132.146 92.9889 132.947 94.8646 132.283C96.5601 131.685 99.8143 130.597 99.7409 129.566C99.6808 128.718 98.2857 127.774 98.2857 127.774C98.2857 127.774 95.8459 129.085 94.6744 129.529C93.7098 129.893 90.1519 131.155 90.5725 131.625Z" fill="#205363"/>
<path d="M97.6614 130.924C98.9998 130.894 103.859 127.557 102.898 125.367C102.594 124.68 101.463 124.62 101.463 124.62L96.4966 129.366C96.4966 129.366 96.1528 130.961 97.6614 130.924Z" fill="#205363"/>
<path d="M106.456 138.791L101.309 141.231C98.2788 142.666 94.6608 141.378 93.2223 138.347C91.7871 135.317 93.0755 131.699 96.106 130.26L101.253 127.82L106.456 138.791Z" fill="#E6E9F4"/>
<path d="M108.553 120.718L103.286 123.214C102.785 123.451 102.455 123.932 102.375 124.479C102.238 125.427 101.571 127.109 98.9339 129.079C96.3472 131.011 100.613 140.467 103.783 139.896C106.894 139.338 108.78 140.336 109.704 141.077C110.195 141.471 110.866 141.551 111.437 141.281L117.367 138.467L108.556 120.715L108.553 120.718Z" fill="#DEE4F9"/>
<path d="M95.7725 139.565L91.724 140.971L89.8516 137.022L93.5029 134.776L95.7725 139.565Z" fill="#CBD9EF"/>
<path d="M91.149 137.425L87.0234 139.382L88.1918 141.845L92.3173 139.889L91.149 137.425Z" fill="#CBD9EF"/>
<path d="M87.2604 138.033L86.6572 138.319L87.4924 140.081L88.0955 139.795L87.2604 138.033Z" fill="#CBD9EF"/>
<path d="M88.36 137.51L87.7568 137.796L88.592 139.557L89.1951 139.271L88.36 137.51Z" fill="#CBD9EF"/>
<path d="M89.4557 136.987L88.8525 137.273L89.6877 139.035L90.2908 138.748L89.4557 136.987Z" fill="#CBD9EF"/>
<path d="M88.4488 140.537L87.8457 140.823L88.6808 142.584L89.284 142.298L88.4488 140.537Z" fill="#CBD9EF"/>
<path d="M89.5455 140.016L88.9424 140.302L89.7775 142.063L90.3807 141.777L89.5455 140.016Z" fill="#CBD9EF"/>
<path d="M90.6461 139.491L90.043 139.777L90.8781 141.538L91.4813 141.252L90.6461 139.491Z" fill="#CBD9EF"/>
<path d="M118.515 139.876C116.313 140.921 112.281 137.026 109.507 131.181C106.734 125.334 106.273 119.747 108.473 118.702L113.132 116.493L123.175 137.666L118.442 139.913" fill="#EBEDFC"/>
<path d="M123.171 137.675C125.373 136.631 124.91 131.044 122.137 125.196C119.364 119.348 115.331 115.454 113.129 116.498C110.928 117.542 111.39 123.129 114.163 128.977C116.936 134.825 120.969 138.719 123.171 137.675Z" fill="#DEE4F9"/>
<path d="M117.254 127.35C117.771 128.438 117.788 129.509 117.294 129.743C116.8 129.977 115.982 129.286 115.465 128.198C114.948 127.11 114.931 126.038 115.425 125.805C115.919 125.571 116.737 126.262 117.254 127.35Z" fill="#BCCFF7"/>
<path d="M120.951 125.754C121.469 126.842 121.485 127.914 120.991 128.147C120.497 128.381 119.68 127.69 119.162 126.602C118.645 125.514 118.628 124.443 119.122 124.209C119.616 123.975 120.434 124.666 120.951 125.754Z" fill="#BCCFF7"/>
<path d="M94.5143 127.46C94.5143 127.46 94.6912 126.909 93.4796 127.19C92.722 127.367 93.7633 129.049 91.2101 129.402C89.9985 129.569 88.4732 130.027 88.7035 133.611C88.7035 133.611 88.6535 135.26 87.3818 135.317C87.3818 135.317 88.4198 138.467 92.9323 137.109C95.1218 136.452 97.1911 133.615 97.4113 131.569C97.5015 130.734 97.0876 129.389 96.6871 128.895C96.3333 128.458 94.5143 127.46 94.5143 127.46Z" fill="#3B2B5B"/>
<path d="M94.0908 128.041C94.0908 128.041 94.5714 126.846 95.3624 127.166C96.1535 127.487 96.8176 128.678 96.1668 130.701C95.516 132.723 94.0908 128.041 94.0908 128.041Z" fill="#3B2B5B"/>
<path d="M91.8305 141.715C90.0449 143.621 92.1543 153.049 92.1543 153.049C92.1543 153.049 88.1825 166.937 88.2659 167.111L88.3961 167.361C88.4228 167.414 93.8831 159.147 95.889 154.985C96.6634 153.376 98.8462 148.19 98.5792 143.868C98.4757 142.212 97.6613 138.177 97.6613 138.177C97.6613 138.177 96.1327 138.217 94.4539 139.392C93.3558 140.163 92.2944 141.218 91.8272 141.715H91.8305Z" fill="#FF97A6"/>
<path d="M88.7535 169.354C89.0105 169.28 88.7568 168.439 88.5599 168.005C88.5699 168.155 88.5699 168.346 88.4064 168.219C88.1661 168.035 87.859 167.468 87.9158 167.194C87.7489 167.231 87.562 167.348 87.4451 167.438C87.2916 167.555 88.5966 169.4 88.7535 169.354Z" fill="#30193B"/>
<path d="M88.4067 168.219C88.5702 168.346 88.7171 168.309 88.5769 168.039C88.4501 167.795 88.3967 167.561 88.3866 167.508C88.3566 167.371 88.4901 167.211 88.4901 167.211L88.3499 167.011C88.3499 167.011 87.9661 167.181 87.916 167.191C87.8593 167.468 88.1664 168.032 88.4067 168.215V168.219Z" fill="#FF97A6"/>
<path d="M105.772 169.38C105.692 169.06 104.891 169.13 104.42 169.207C104.567 169.237 104.751 169.287 104.587 169.41C104.347 169.594 103.72 169.737 103.466 169.607C103.456 169.778 103.519 169.988 103.573 170.125C103.643 170.302 105.812 169.537 105.772 169.377V169.38Z" fill="#30193B"/>
<path d="M104.588 169.41C104.751 169.287 104.758 169.133 104.458 169.197C104.191 169.254 103.947 169.24 103.894 169.24C103.753 169.233 103.637 169.06 103.637 169.06L103.406 169.143C103.406 169.143 103.466 169.561 103.463 169.611C103.713 169.737 104.341 169.594 104.584 169.414L104.588 169.41Z" fill="#FF97A6"/>
<path d="M91.3471 145.823C92.0447 149.291 98.6632 153.35 98.6632 153.35C98.6632 153.35 103.256 169.39 103.433 169.317L103.676 169.203C103.73 169.18 103.352 155.169 102.368 151.167C102.017 149.742 97.3381 142.543 97.3381 142.543C97.3381 142.543 97.3581 138.507 97.0578 138.18C96.3769 138.16 95.0218 139.729 93.0827 139.419C92.6755 139.355 90.5828 142.022 91.3471 145.823Z" fill="#FF97A6"/>
<path d="M97.6656 138.084C97.6656 138.084 98.8705 144.101 98.7169 146.348C98.5634 148.594 98.6068 153.073 98.6068 153.073C98.6068 153.073 95.2759 153.517 92.1585 153.049C92.1585 153.049 90.5999 147.125 91.2507 144.645C91.9049 142.166 96.5308 138.871 96.5308 138.871L97.6656 138.084Z" fill="#30193B"/>
<path d="M92.0248 140.65C92.0248 140.65 89.0943 144.572 92.8124 148.494C96.5305 152.415 98.6633 153.35 98.6633 153.35L102.582 151.04C102.582 151.04 99.8748 146.234 98.8769 144.692C98.5164 144.138 97.3382 142.539 97.3382 142.539C97.3382 142.539 97.3015 138.751 97.2248 138.314C97.148 137.877 92.0248 140.647 92.0248 140.647V140.65Z" fill="#3B2B5B"/>
<path d="M92.5417 131.168C93.4328 130.808 94.621 130.798 94.8647 130.781C95.8893 130.717 97.1576 132.323 97.6148 133.945C98.0487 135.477 97.9853 139.529 97.9853 139.529C97.9853 139.529 97.5982 139.973 95.7091 140.053C92.8721 140.176 92.525 139.632 92.525 139.632C92.525 139.632 92.238 138.608 91.9943 136.905C91.8608 135.988 91.5504 135.21 91.2634 133.594C91.2133 133.317 91.4903 131.589 92.5383 131.168H92.5417Z" fill="#E4DEFC"/>
<path d="M94.2139 130.751C94.2139 130.751 96.6904 132.356 97.3412 135.831C97.5582 136.986 97.5949 137.706 97.685 138.267C97.8085 139.035 98.4893 143.01 98.5728 143.691C98.5728 143.691 98.96 143.557 99.3271 143.03C99.6942 142.503 98.2724 138.731 98.2724 138.731C98.2724 138.731 98.0621 133.661 97.6082 132.65C97.1543 131.639 95.4421 130.467 94.2205 130.748L94.2139 130.751Z" fill="#205363"/>
<path d="M105.168 139.762C105.168 139.833 105.208 139.896 105.265 139.919C105.412 139.979 105.759 140.123 106.036 140.24C106.036 140.24 106.463 140.413 106.65 140.253C106.65 140.253 106.674 140.163 106.54 140.15C106.54 140.15 106.961 140.053 106.994 139.933C107.027 139.812 106.537 139.826 106.537 139.826C106.537 139.826 105.909 139.652 105.986 139.449C105.986 139.449 106.243 139.415 106.203 139.325C106.166 139.235 105.656 139.272 105.532 139.385C105.532 139.385 105.359 139.455 105.262 139.462C105.198 139.469 105.165 139.636 105.165 139.762H105.168Z" fill="#FFA9BA"/>
<path d="M96.9179 138.527C97.3151 140.056 103.466 141.949 104.965 140.373C105.522 139.786 105.342 139.228 105.342 139.228L97.9159 136.842C97.9159 136.842 96.4707 136.805 96.9179 138.531V138.527Z" fill="#295A6E"/>
<path d="M101.957 124.71C101.957 124.71 101.977 123.969 102.227 123.789C102.494 123.595 102.885 123.528 103.005 123.685C103.085 123.792 102.701 123.785 102.701 123.785C102.701 123.785 103.058 123.869 103.068 123.939C103.078 124.002 102.845 124.002 102.845 124.002C102.845 124.002 103.032 124.019 103.058 124.129C103.085 124.239 102.805 124.196 102.688 124.273C102.571 124.349 102.464 124.857 102.237 125.02C102.154 125.08 101.987 124.96 101.96 124.713L101.957 124.71Z" fill="#FF97A6"/>
<path d="M93.713 128.898C93.713 128.898 93.4093 130.798 93.4961 131.021C93.5828 131.245 93.9333 131.548 94.1669 131.085C94.4006 130.621 94.2771 128.935 94.2771 128.935L93.713 128.898Z" fill="#FF97A6"/>
<path d="M93.7332 128.284C93.7332 128.284 93.5497 129.856 93.543 130.093C93.5396 130.277 94.2305 130.747 94.2839 130.514C94.4074 130.003 94.2973 128.318 94.2973 128.318L93.7332 128.281V128.284Z" fill="#C95D77"/>
<path d="M95.3321 128.992C95.3388 128.838 95.1218 128.361 94.9316 127.967C94.7714 127.64 94.3742 127.51 94.0505 127.68C93.5498 127.941 93.0125 128.258 92.9057 128.428C92.7388 128.695 92.889 129.042 92.9958 129.306C93.1026 129.566 93.3863 129.997 93.6366 130.143C93.8669 130.277 94.3575 130.267 94.5912 130.157C95.2887 129.83 95.4089 129.556 95.3355 128.995L95.3321 128.992Z" fill="#FC9FAF"/>
<path d="M93.4801 130.861C93.4801 130.861 94.8018 131.292 95.7464 133.568C96.6909 135.844 96.0701 140.029 96.0701 140.029C96.0701 140.029 94.1376 144.211 93.5469 144.345C92.9561 144.475 90.3428 143.694 90.3428 143.694C90.3428 143.694 90.8801 141.538 92.3387 139.365C92.3387 139.365 92.2352 137.55 91.3641 134.853C90.4963 132.156 92.4889 130.761 93.4801 130.861Z" fill="#295A6E"/>
<path d="M92.2712 132.022C91.7639 132.5 91.7539 134.546 93.129 135.984C94.3739 137.283 96.8438 139.706 98.9798 139.806C100.559 139.879 98.5693 137.286 98.5693 137.286C98.5693 137.286 96.1328 135.49 95.5621 134.676C94.9714 133.831 93.2191 131.131 92.2712 132.026V132.022Z" fill="#295A6E"/>
<path d="M94.3606 127.45C94.3606 127.45 94.7511 129.803 93.3059 130.36C91.8607 130.918 92.358 128.161 92.358 128.161L94.3606 127.45Z" fill="#3B2B5B"/>
<path d="M93.8633 127.744L94.0068 127.887C94.0468 127.927 94.1103 127.927 94.1503 127.887C94.1904 127.847 94.1904 127.784 94.1503 127.744L94.0068 127.6L93.8633 127.744ZM94.0502 127.844C94.0502 127.844 94.0335 127.804 94.0502 127.787C94.0669 127.77 94.0902 127.77 94.1069 127.787C94.1236 127.804 94.1236 127.827 94.1069 127.844C94.0902 127.86 94.0669 127.86 94.0502 127.844Z" fill="#FD9E38"/>
<path d="M93.1192 128.515L93.206 128.952C93.2127 128.982 93.2027 129.012 93.1793 129.035L92.7955 129.399L92.8422 129.493C92.8422 129.493 92.5652 129.519 92.435 129.439C92.3049 129.359 93.1159 128.518 93.1159 128.518L93.1192 128.515Z" fill="#295A6E"/>
<path d="M95.4825 126.696C95.4825 126.696 95.7361 126.746 94.6314 127.437C94.5546 127.487 94.4712 127.527 94.3844 127.56C94.1474 127.654 93.5967 127.897 93.3197 128.271C92.9592 128.755 93.1428 128.812 92.8457 129.129C92.552 129.446 92.2216 129.673 92.1515 129.613C92.1515 129.613 92.1248 129.593 92.1982 129.509L91.9212 129.142L91.9346 129.049C91.9346 129.049 90.8932 127.814 91.8612 126.786C92.8291 125.754 93.5466 126.115 93.9004 126.268C94.1374 126.369 94.4645 126.602 94.6547 126.749C94.7515 126.823 94.8817 126.839 94.9952 126.792C95.1587 126.726 95.389 126.652 95.4724 126.699L95.4825 126.696Z" fill="#FFCB48"/>
<path d="M91.9348 129.102C91.9348 129.102 92.3554 128.938 92.836 128.201C93.3166 127.463 93.6003 127.48 93.924 127.226C94.2511 126.973 94.418 126.859 94.418 126.859C94.418 126.859 94.7818 126.956 94.8586 126.943C94.8586 126.943 94.7618 127.263 94.0943 127.603C93.4267 127.947 93.2632 128.124 93.113 128.398C92.9628 128.675 92.9828 128.885 92.8026 129.072C92.6224 129.259 92.2719 129.536 92.2052 129.509C92.2052 129.509 91.9248 129.155 91.9348 129.102Z" fill="#FD9E38"/>
<path d="M94.6345 127.24L94.4309 127.059C94.4109 127.039 94.3775 127.039 94.3542 127.059L94.2073 127.186C94.184 127.206 94.1806 127.246 94.2006 127.27L94.3609 127.45C94.3609 127.45 94.5244 127.373 94.6312 127.24H94.6345Z" fill="#FFCB48"/>
<path d="M93.2157 126.225C92.9754 126.218 92.7351 126.272 92.5081 126.369C92.3946 126.415 92.2878 126.479 92.1877 126.552C92.0876 126.626 92.0008 126.719 91.9207 126.806C91.8439 126.899 91.7672 126.996 91.7038 127.099C91.6403 127.206 91.5869 127.316 91.5536 127.437C91.4835 127.677 91.4935 127.927 91.5469 128.161C91.5469 127.921 91.5636 127.684 91.647 127.47C91.7305 127.256 91.8673 127.066 92.0175 126.889C92.0943 126.799 92.171 126.719 92.2611 126.646C92.3512 126.572 92.448 126.512 92.5515 126.455C92.7584 126.349 92.9821 126.272 93.2157 126.222V126.225Z" fill="#FD9E38"/>
<path d="M93.5298 130.237C93.5298 130.237 94.3875 131.719 92.8322 132.506C91.2769 133.294 91.0933 135.26 91.0933 135.26L90.1221 132.103L93.5298 130.237Z" fill="#3B2B5B"/>
<path d="M91.2106 129.406C90.9837 129.459 90.7601 129.513 90.5431 129.586C90.3295 129.669 90.1192 129.756 89.9357 129.886C89.5552 130.13 89.3015 130.514 89.1313 130.921C88.9678 131.335 88.871 131.782 88.8409 132.236C88.7942 132.69 88.8042 133.147 88.8142 133.608V133.618C88.8009 133.831 88.7542 134.028 88.6907 134.225C88.6273 134.419 88.5439 134.609 88.4271 134.783C88.3103 134.953 88.1501 135.096 87.9698 135.193C87.7896 135.293 87.5827 135.32 87.3857 135.323C87.5827 135.287 87.7729 135.24 87.9331 135.126C88.0933 135.016 88.2135 134.869 88.3136 134.709C88.5038 134.382 88.5839 133.985 88.6006 133.614V133.624C88.5906 133.391 88.5706 133.157 88.5672 132.924C88.5773 132.69 88.5673 132.453 88.594 132.219C88.6273 131.749 88.7275 131.275 88.921 130.838C89.1146 130.4 89.4317 129.997 89.8589 129.766C90.2761 129.519 90.7534 129.442 91.214 129.412L91.2106 129.406Z" fill="#7F65C1"/>
<path d="M92.1512 134.329C92.3348 134.793 92.5818 135.22 92.8588 135.62C93.1391 136.021 93.4529 136.398 93.79 136.752C94.1304 137.102 94.4975 137.429 94.8814 137.736C95.2652 138.047 95.6724 138.321 96.0829 138.608C95.856 138.507 95.629 138.397 95.4054 138.284C95.1918 138.154 94.9715 138.033 94.7646 137.89C94.344 137.613 93.9635 137.283 93.6064 136.925C93.2626 136.558 92.9456 136.161 92.6919 135.724C92.4416 135.29 92.228 134.823 92.1445 134.329H92.1512Z" fill="#205363"/>
<path d="M93.209 132.63C93.7931 132.937 94.3204 133.334 94.8144 133.765C95.3017 134.205 95.7623 134.686 96.096 135.26C95.6121 134.816 95.1348 134.382 94.6508 133.952C94.1669 133.518 93.6796 133.094 93.2123 132.63H93.209Z" fill="#205363"/>
<path d="M48.9526 118.609C57.3084 118.609 64.082 117.564 64.082 116.276C64.082 114.987 57.3084 113.943 48.9526 113.943C40.5969 113.943 33.8232 114.987 33.8232 116.276C33.8232 117.564 40.5969 118.609 48.9526 118.609Z" fill="#EEEAFE"/>
<path d="M58.0213 114.941C58.1548 114.166 57.0701 114.38 56.4427 114.206C56.6329 114.32 56.8198 114.483 56.5294 114.573C56.1022 114.707 55.161 114.593 54.874 114.293C54.7738 114.527 54.7572 114.847 54.7672 115.067C54.7772 115.351 57.9312 115.481 58.0247 114.941H58.0213Z" fill="#3B2B5B"/>
<path d="M56.5295 114.57C56.8198 114.48 56.6329 114.317 56.4427 114.203C56.0522 114.096 55.7251 114.019 55.6517 113.989C55.4614 113.909 55.4047 113.739 55.4047 113.739L55.2078 113.702C55.2078 113.702 54.9007 114.223 54.874 114.29C55.1611 114.594 56.1056 114.704 56.5295 114.57Z" fill="#FF97A6"/>
<path d="M40.4986 114.804C40.3651 114.029 41.4498 114.243 42.0773 114.069C41.887 114.183 41.7001 114.346 41.9905 114.437C42.4177 114.57 43.3589 114.457 43.6459 114.156C43.7461 114.39 43.7628 114.71 43.7527 114.931C43.7427 115.214 40.5887 115.344 40.4952 114.804H40.4986Z" fill="#3B2B5B"/>
<path d="M41.9902 114.433C41.6998 114.343 41.8867 114.18 42.0769 114.066C42.4674 113.959 42.7945 113.883 42.8679 113.853C43.0582 113.772 43.1149 113.602 43.1149 113.602L43.3119 113.566C43.3119 113.566 43.6189 114.086 43.6456 114.153C43.3586 114.457 42.414 114.567 41.9902 114.433Z" fill="#FF97A6"/>
<path d="M53.3488 78.3637C53.3588 78.4571 54.6004 80.2761 55.4982 82.6993C56.9 86.4741 56.0956 109.55 55.5483 113.592C55.4748 114.136 54.1732 113.592 54.1431 112.915C53.9529 108.656 49.1601 87.1116 49.1601 87.1116L43.4561 113.809H42.1177C42.1177 113.809 41.2466 88.0595 44.167 77.3691C45.432 77.1021 51.3863 78.2102 53.3488 78.367V78.3637Z" fill="#6675BF"/>
<path d="M53.7018 77.6394C53.7118 77.7329 55.0502 80.4397 55.7778 82.9195C57.0794 87.3619 56.0948 109.55 55.5475 113.592C55.5074 113.883 55.1203 113.863 54.7631 113.679C54.6096 113.599 55.4073 105.522 53.3814 95.796C52.6171 92.138 51.5123 87.9159 50.7914 85.0256C49.7968 81.0305 48.2915 78.4405 48.8889 78.4605C50.5578 78.5172 52.814 77.5694 53.7018 77.6394Z" fill="#566FAF"/>
<path d="M43.7625 67.7234C44.5868 66.8523 47.1935 65.6708 52.2066 65.9745C52.7039 66.0045 53.3514 66.4751 53.8554 66.6654C53.7586 68.3442 54.5496 70.0564 54.5496 70.0564C54.1925 71.1812 54.0056 72.4561 53.9121 73.5675C53.792 74.9994 53.9121 78.11 53.9121 78.11C53.9121 78.11 50.6313 78.841 49.0159 79.0212C47.6875 79.1681 44.0028 78.634 43.8659 77.8497C43.5956 76.291 43.6757 74.5488 43.7524 72.2692C43.8426 69.6058 43.7658 67.7234 43.7658 67.7234H43.7625Z" fill="#357A5F"/>
<path d="M49.133 65.9778C49.133 65.9778 49.7872 65.9378 50.1343 65.9311C50.7751 65.9178 51.4626 65.9311 52.2069 65.9745C52.7042 66.0045 53.8891 66.7054 54.5499 67.897C54.4531 69.5758 54.5499 70.0564 54.5499 70.0564C54.1928 71.1812 54.0059 72.4561 53.9124 73.5676C53.7923 74.9994 53.9124 78.11 53.9124 78.11C53.9124 78.11 51.9266 78.7408 51.249 78.861C50.7017 78.9578 48.8326 79.0346 48.8326 79.0346C48.8326 79.0346 48.9427 78.1434 48.5522 74.8325C48.1184 71.1878 49.133 65.9778 49.133 65.9778Z" fill="#28684C"/>
<path d="M49.6233 64.566C49.6233 64.566 49.9704 66.3683 49.7835 66.5652C49.5966 66.7588 48.9224 67.0025 48.5419 66.5419C48.1614 66.0813 48.5786 64.5293 48.5786 64.5293L49.6233 64.566Z" fill="#FF97A6"/>
<path d="M49.8207 65.8778C49.4169 66.018 48.8195 65.7743 48.4223 65.3471C48.4189 65.02 48.4356 65.2103 48.489 64.9366L49.5938 64.4626C49.6372 64.723 49.7907 65.5774 49.8207 65.8778Z" fill="#C95D77"/>
<path d="M48.5352 67.0927L48.8556 67.6767L49.1693 67.6667L49.6199 67.0259C49.6199 67.0259 48.9624 66.552 48.5352 67.0927Z" fill="#3B2B5B"/>
<path d="M49.1099 67.353C49.1099 67.353 50.1645 71.6886 50.4349 73.1471C50.7052 74.6056 50.4449 75.0062 50.4449 75.0062L49.25 75.8339L48.0752 74.9194C48.0752 74.9194 48.4857 68.0639 48.8962 67.3897C49.3068 66.7155 49.1099 67.3497 49.1099 67.3497V67.353Z" fill="#3B2B5B"/>
<path d="M48.3851 65.7776C48.3851 65.7776 48.325 66.1748 49.0693 66.8122L48.5353 67.6366C48.5353 67.6366 47.7977 67.0058 48.3884 65.7776H48.3851Z" fill="#28684C"/>
<path d="M49.8141 65.7609C49.8141 65.7609 49.8609 65.9578 49.0098 66.8156L49.5304 67.5131C49.5304 67.5131 50.5618 66.899 49.8141 65.7642V65.7609Z" fill="#357A5F"/>
<path d="M47.9384 64.1556C47.8483 63.9453 47.9184 63.2811 47.9585 62.954C47.9752 62.8172 48.0386 62.6904 48.1521 62.6103C48.7528 62.1897 49.9978 62.4501 50.228 62.6236C50.5051 62.8339 50.485 63.2511 50.4784 63.5648C50.4717 63.8752 50.178 65.4239 49.17 65.3171C48.0753 65.2036 48.082 64.7664 47.9384 64.1556Z" fill="#FF97A6"/>
<path d="M41.8299 79.1281C41.8966 78.1735 41.426 72.7733 41.426 72.7733C41.426 72.7733 39.6104 71.4249 39.2599 72.4228C38.8728 73.5209 38.5791 75.0295 38.1719 76.6983C37.768 78.3404 39.4235 80.9371 39.4235 80.9371C39.4235 80.9371 41.7631 80.0827 41.8299 79.1281Z" fill="#357A5F"/>
<path d="M41.366 73.5542C41.366 73.5542 41.9367 72.6531 42.928 71.585C43.5521 70.9108 44.2964 70.4502 45.785 68.7914C46.2389 68.2841 47.2201 66.3717 45.4813 66.7088C43.3719 67.116 40.051 70.8007 39.4202 72.059C38.4656 73.9614 41.3693 73.5575 41.3693 73.5575L41.366 73.5542Z" fill="#357A5F"/>
<path d="M49.7406 103.903H47.8983C47.7447 103.903 47.6146 103.8 47.5779 103.653L46.7501 100.288C46.7268 100.192 46.7501 100.085 46.8102 100.005C46.8736 99.9247 46.9671 99.8779 47.0672 99.8779L50.5784 99.8412C50.6885 99.8379 50.7786 99.8879 50.842 99.968C50.9055 100.048 50.9288 100.155 50.9055 100.252L50.0677 103.653C50.031 103.8 49.8975 103.903 49.7473 103.903H49.7406ZM48.1553 103.242H49.4803L50.1545 100.505L47.4911 100.535L48.1553 103.242Z" fill="#30193B"/>
<path d="M49.8803 95.6726H47.7676V98.6931H49.8803V95.6726Z" fill="#30193B"/>
<path d="M49.8809 94.3876H50.6118V96.3668C50.6118 96.7406 50.3081 97.041 49.9376 97.041H49.8809V94.3876Z" fill="#3B2B5B"/>
<path d="M47.0371 94.3442H47.768V96.9976H47.7113C47.3375 96.9976 47.0371 96.6939 47.0371 96.3234V94.3442Z" fill="#3B2B5B"/>
<path d="M50.6117 87.6123H47.0371V95.4056H50.6117V87.6123Z" fill="#FFCB48"/>
<path d="M50.7685 86.5141H46.8768L46.0391 84.5049H51.6062L50.7685 86.5141Z" fill="#FFCB48"/>
<path d="M52.6512 80.4831L44.998 80.4964L45.6022 77.0988C45.6022 76.5681 45.9893 76.1409 46.4666 76.1409H51.3629C51.8401 76.1409 52.2273 76.5714 52.2273 77.0988L52.6512 80.4798V80.4831Z" fill="#FFCB48"/>
<path d="M39.1204 80.5365H43.3125V82.2854H39.1204C38.6899 82.2854 38.3428 81.935 38.3428 81.5077V81.3142C38.3428 80.8836 38.6932 80.5365 39.1204 80.5365Z" fill="#30193B"/>
<path d="M43.279 80.4431H43.6661V83.4403H43.279C42.9786 83.4403 42.7383 83.1966 42.7383 82.8996V80.9871C42.7383 80.6868 42.9819 80.4465 43.279 80.4465V80.4431Z" fill="#3B2B5B"/>
<path d="M44.771 84.1178L43.723 83.6405C43.6329 83.6005 43.5762 83.5103 43.5762 83.4135V80.4464H45.0481V83.9409C45.0481 84.0844 44.9012 84.1779 44.771 84.1178Z" fill="#6C56B2"/>
<path d="M58.3884 82.3088H54.1963V80.5599H58.3884C58.8189 80.5599 59.166 80.9104 59.166 81.3376V81.5312C59.166 81.9617 58.8156 82.3088 58.3884 82.3088Z" fill="#30193B"/>
<path d="M54.2298 83.4636H53.8427V80.4665H54.2298C54.5302 80.4665 54.7705 80.7101 54.7705 81.0071V82.9196C54.7705 83.22 54.5269 83.4603 54.2298 83.4603V83.4636Z" fill="#3B2B5B"/>
<path d="M52.738 84.1378L53.786 83.6605C53.8761 83.6205 53.9328 83.5304 53.9328 83.4336V80.4664H52.4609V83.9609C52.4609 84.1044 52.6078 84.1979 52.738 84.1378Z" fill="#7F65C1"/>
<path d="M44.998 80.4431H52.6512V84.4449C52.6512 84.8988 52.284 85.266 51.8301 85.266H45.8191C45.3652 85.266 44.998 84.8988 44.998 84.4449V80.4431Z" fill="#FF9A2E"/>
<path d="M46.7197 86.1804H50.9285V87.6623C50.9285 87.9961 50.6581 88.2664 50.3243 88.2664H47.3272C46.9934 88.2664 46.7231 87.9961 46.7231 87.6623V86.1804H46.7197Z" fill="#FF9A2E"/>
<path d="M50.6117 95.4055H47.0371V95.9362H50.6117V95.4055Z" fill="#7F65C1"/>
<path d="M49.7103 101.029H47.9547C47.8379 101.029 47.7411 100.946 47.7211 100.833L47.374 98.8934C47.3406 98.7065 47.4841 98.533 47.6744 98.533H49.9807C50.1709 98.533 50.3144 98.7065 50.281 98.8934L49.9306 100.846C49.9106 100.953 49.8204 101.029 49.7136 101.029H49.7103Z" fill="#3B2B5B"/>
<path d="M49.2495 101.37H48.3984V114.483H49.2495V101.37Z" fill="#DBCFFD"/>
<path d="M49.2594 116.439H48.385C48.2481 116.439 48.1313 116.336 48.1113 116.199L47.7542 113.485C47.7241 113.245 47.911 113.031 48.1547 113.031H49.483C49.7267 113.031 49.9136 113.245 49.8835 113.485L49.5264 116.199C49.5097 116.336 49.3929 116.439 49.2527 116.439H49.2594Z" fill="#DBCFFD"/>
<path d="M50.7982 80.443H46.7597L46.3525 76.1409H51.2955L50.7982 80.443Z" fill="#3B2B5B"/>
<path d="M48.085 100.966H49.5669V101.43C49.5669 101.547 49.4701 101.644 49.3532 101.644H48.3019C48.1851 101.644 48.0883 101.547 48.0883 101.43V100.966H48.085Z" fill="#3B2B5B"/>
<path d="M47.0368 80.8102H46.7197V84.7853H47.0368V80.8102Z" fill="#3B2B5B"/>
<path d="M47.6579 80.8102H47.3408V84.7853H47.6579V80.8102Z" fill="#3B2B5B"/>
<path d="M48.2819 80.8102H47.9648V84.7853H48.2819V80.8102Z" fill="#3B2B5B"/>
<path d="M48.903 80.8102H48.5859V84.7853H48.903V80.8102Z" fill="#3B2B5B"/>
<path d="M49.527 80.8102H49.21V84.7853H49.527V80.8102Z" fill="#3B2B5B"/>
<path d="M50.1472 80.8102H49.8301V84.7853H50.1472V80.8102Z" fill="#3B2B5B"/>
<path d="M50.7722 80.8102H50.4551V84.7853H50.7722V80.8102Z" fill="#3B2B5B"/>
<path d="M49.6674 88.7704H47.9786C47.8017 88.7704 47.6582 88.9138 47.6582 89.0908V94.5511C47.6582 94.7281 47.8017 94.8715 47.9786 94.8715H49.6674C49.8444 94.8715 49.9879 94.7281 49.9879 94.5511V89.0908C49.9879 88.9138 49.8444 88.7704 49.6674 88.7704Z" fill="#FF9A2E"/>
<path d="M39.9447 80.0692C39.6076 80.1593 39.187 80.3596 39.0368 80.73C38.92 81.0171 39.0669 81.6212 39.1904 81.7013C39.3139 81.7814 39.3539 81.5945 39.3539 81.5945C39.3539 81.5945 39.3873 81.7847 39.5141 81.7413C39.5909 81.7146 39.6543 81.3008 39.7878 81.0304C39.8679 80.8635 40.0448 80.7234 40.0682 80.6032C40.0682 80.6032 40.0915 80.987 40.205 80.9637C40.3218 80.9403 40.5121 80.4063 40.4687 80.196C40.442 80.0558 40.0882 80.0325 39.9447 80.0692Z" fill="#FF97A6"/>
<path d="M39.1432 81.1306C39.1432 81.1306 38.963 81.7647 38.8896 81.5278C38.8162 81.2908 38.993 80.4531 39.3068 80.373C39.6239 80.2929 39.1399 81.1306 39.1399 81.1306H39.1432Z" fill="#FF97A6"/>
<path d="M39.1234 80.7401C39.1234 80.7401 38.8363 80.9938 38.6127 81.0439C38.3891 81.0939 39.1267 80.3063 39.4872 80.2529C39.8443 80.1995 39.1234 80.7401 39.1234 80.7401Z" fill="#FF97A6"/>
<path d="M56.1383 79.2682C56.0716 78.3137 56.5422 72.9134 56.5422 72.9134C56.5422 72.9134 58.3578 71.565 58.7083 72.563C59.0954 73.6611 59.3892 75.1697 59.7963 76.8385C60.2002 78.4806 58.5447 81.0772 58.5447 81.0772C58.5447 81.0772 56.2051 80.2228 56.1383 79.2682Z" fill="#28684C"/>
<path d="M56.6021 73.6944C56.6021 73.6944 56.0314 72.7933 55.0401 71.7252C54.416 71.051 53.6717 70.5904 52.1832 68.9316C51.7292 68.4243 50.7013 65.7442 52.4502 66.0212C55.2137 66.4618 57.9172 70.9375 58.548 72.1958C59.5025 74.0983 56.5988 73.6944 56.5988 73.6944H56.6021Z" fill="#28684C"/>
<path d="M58.0245 80.2062C58.3616 80.2963 58.7821 80.4965 58.9323 80.867C59.0491 81.154 58.9023 81.7581 58.7788 81.8382C58.6553 81.9183 58.6152 81.7314 58.6152 81.7314C58.6152 81.7314 58.5818 81.9217 58.455 81.8783C58.3782 81.8516 58.3148 81.4377 58.1813 81.1674C58.1012 81.0005 57.9243 80.8603 57.901 80.7402C57.901 80.7402 57.8776 81.124 57.7641 81.1006C57.6473 81.0773 57.4571 80.5433 57.5005 80.333C57.5305 80.1928 57.8809 80.1694 58.0245 80.2062Z" fill="#FF97A6"/>
<path d="M58.8284 81.2709C58.8284 81.2709 59.0087 81.905 59.0821 81.668C59.1555 81.4311 58.9786 80.5933 58.6649 80.5132C58.3512 80.4331 58.8318 81.2709 58.8318 81.2709H58.8284Z" fill="#FF97A6"/>
<path d="M58.8449 80.8803C58.8449 80.8803 59.132 81.1339 59.3556 81.184C59.5792 81.2341 58.8416 80.4464 58.4811 80.393C58.124 80.3396 58.8449 80.8803 58.8449 80.8803Z" fill="#FF97A6"/>
<path d="M47.4491 62.5981L47.6482 62.5771L47.8506 64.4956L47.6514 64.5166C47.1635 64.568 46.7232 64.2117 46.6717 63.7238L46.656 63.5745C46.6045 63.0865 46.9608 62.6462 47.4487 62.5948L47.4491 62.5981Z" fill="#FF5E4D"/>
<path d="M47.6952 62.5734L47.6023 62.5832C47.5253 62.5913 47.4695 62.6603 47.4776 62.7373L47.6508 64.377C47.659 64.454 47.728 64.5098 47.8049 64.5016L47.8979 64.4918C47.9749 64.4837 48.0307 64.4147 48.0226 64.3377L47.8494 62.698C47.8412 62.621 47.7722 62.5652 47.6952 62.5734Z" fill="#3B2B5B"/>
<path d="M50.66 64.4819L50.4626 64.4485L50.785 62.5465L50.9824 62.5799C51.4661 62.6619 51.7941 63.1237 51.7121 63.6075L51.687 63.7555C51.605 64.2393 51.1432 64.5672 50.6595 64.4852L50.66 64.4819Z" fill="#FF5E4D"/>
<path d="M50.423 64.4372L50.5151 64.4528C50.5914 64.4657 50.6638 64.4143 50.6767 64.338L50.9523 62.7124C50.9652 62.6361 50.9138 62.5637 50.8375 62.5508L50.7454 62.5351C50.669 62.5222 50.5967 62.5736 50.5837 62.6499L50.3082 64.2755C50.2952 64.3518 50.3466 64.4242 50.423 64.4372Z" fill="#3B2B5B"/>
<path d="M49.0793 61.4054H49.2963C50.0072 61.4054 50.5879 61.9828 50.5879 62.6971V63.4313H47.791V62.6971C47.791 61.9861 48.3684 61.4054 49.0827 61.4054H49.0793Z" fill="#FFCB48"/>
<path d="M48.5757 63.458H48.292L48.332 63.1375C48.332 63.1108 48.3587 63.0908 48.3854 63.0908H48.5256C48.5557 63.0908 48.579 63.1142 48.579 63.1442V63.458H48.5757Z" fill="#FF9A2E"/>
<path d="M49.8139 63.4312H50.0976L50.0575 63.1108C50.0575 63.0841 50.0308 63.0641 50.0041 63.0641H49.8639C49.8339 63.0641 49.8105 63.0875 49.8105 63.1175V63.4312H49.8139Z" fill="#FF9A2E"/>
<path d="M49.1665 61.2686H49.2065C49.3434 61.2686 49.4535 61.3787 49.4535 61.5155V61.9962H48.9229V61.5155C48.9229 61.3787 49.033 61.2686 49.1698 61.2686H49.1665Z" fill="#FFCB48"/>
<path d="M48.929 61.392H48.9491V61.9961H48.6787V61.6423C48.6787 61.5054 48.7889 61.392 48.929 61.392Z" fill="#FFCB48"/>
<path d="M49.6904 61.9928H49.4134V61.3887H49.4334C49.5736 61.3887 49.6904 61.5022 49.6904 61.6457V61.9928Z" fill="#FFCB48"/>
<path d="M47.7909 63.3645C47.7909 63.3645 48.1714 63.4412 49.2494 63.4279C50.3275 63.4145 50.5878 63.3177 50.5878 63.3177C50.5878 63.3177 50.6212 63.6649 50.3909 63.7416C50.1773 63.8117 48.6253 63.9486 48.0245 63.7516C47.8743 63.7016 47.7742 63.5414 47.7909 63.3711C47.7909 63.3711 47.7909 63.3678 47.7909 63.3645Z" fill="#FF9A2E"/>
<path d="M48.919 61.4054C48.9257 61.4688 48.929 61.5322 48.9324 61.5956C48.9324 61.6591 48.9357 61.7225 48.9357 61.7859C48.9357 61.8493 48.9357 61.9127 48.9324 61.9761C48.9324 62.0395 48.9257 62.103 48.919 62.1664C48.9124 62.103 48.909 62.0395 48.9057 61.9761C48.9057 61.9127 48.9023 61.8493 48.9023 61.7859C48.9023 61.7225 48.9023 61.6591 48.9057 61.5956C48.9057 61.5322 48.9124 61.4688 48.919 61.4054Z" fill="#FF9A2E"/>
<path d="M49.4337 61.4054C49.4404 61.4688 49.4437 61.5322 49.447 61.5956C49.447 61.6591 49.4504 61.7225 49.4504 61.7859C49.4504 61.8493 49.4504 61.9127 49.447 61.9761C49.447 62.0395 49.4404 62.103 49.4337 62.1664C49.427 62.103 49.4237 62.0395 49.4203 61.9761C49.4203 61.9127 49.417 61.8493 49.417 61.7859C49.417 61.7225 49.417 61.6591 49.4203 61.5956C49.4203 61.5322 49.427 61.4688 49.4337 61.4054Z" fill="#FF9A2E"/>
<path d="M48.6926 61.4955C48.7026 61.5522 48.7026 61.6123 48.7026 61.669C48.7026 61.7258 48.7026 61.7859 48.6926 61.8426C48.6826 61.7859 48.6826 61.7258 48.6826 61.669C48.6826 61.6123 48.6826 61.5522 48.6926 61.4955Z" fill="#FF9A2E"/>
<path d="M49.6702 61.4955C49.6802 61.5589 49.6802 61.6223 49.6802 61.6857C49.6802 61.7491 49.6802 61.8126 49.6702 61.876C49.6602 61.8126 49.6602 61.7491 49.6602 61.6857C49.6602 61.6223 49.6602 61.5589 49.6702 61.4955Z" fill="#FF9A2E"/>
<path d="M47.7215 62.7337C47.7215 62.7337 47.7148 62.7337 47.7082 62.7337C47.6748 62.7271 47.6548 62.6937 47.6614 62.6636C47.6681 62.6269 47.8483 61.7391 48.5559 61.5188C48.9664 61.392 49.4304 61.3987 49.7942 61.5422C50.2314 61.7124 50.5385 62.0662 50.7087 62.5936C50.7187 62.6269 50.702 62.6603 50.6686 62.6703C50.6352 62.6803 50.6019 62.6636 50.5919 62.6303C50.4317 62.133 50.1546 61.8159 49.7508 61.6557C49.4103 61.5222 48.9765 61.5155 48.5926 61.6357C47.9551 61.8326 47.7849 62.677 47.7816 62.687C47.7749 62.717 47.7515 62.7371 47.7215 62.7371V62.7337Z" fill="#3B2B5B"/>
<path d="M238.936 115.131C246.095 115.131 251.899 113.962 251.899 112.521C251.899 111.079 246.095 109.911 238.936 109.911C231.777 109.911 225.973 111.079 225.973 112.521C225.973 113.962 231.777 115.131 238.936 115.131Z" fill="#EEEAFE"/>
<path d="M237.658 1.43184C237.658 1.43184 238.706 0.750971 239.787 1.19821C240.762 1.60206 240.608 2.33634 240.608 2.33634C240.608 2.33634 242.748 1.32504 244.59 4.07857C246.429 6.83209 243.028 9.48883 242.007 9.24185C240.982 8.99487 234.184 6.1045 234.184 6.1045C234.184 6.1045 234.184 1.70886 235.131 1.30835C236.076 0.907838 237.665 1.43184 237.665 1.43184H237.658Z" fill="#C43B72"/>
<path d="M233.916 13.8177C235.525 13.9345 234.474 24.4947 234.721 29.1907C234.798 30.6492 235.004 32.0978 235.332 33.5229L237.695 46.7132L237.925 46.6564C237.925 46.6564 239.267 36.4734 238.662 31.0297C238.239 27.2048 242.618 18.7473 239.03 13.4873C237.978 13.267 235.542 13.6708 233.913 13.8143L233.916 13.8177Z" fill="#F98A8A"/>
<path d="M235.956 47.4608C236.012 47.3073 236.583 47.0402 237.007 46.8967C236.88 46.9802 236.76 47.1003 236.96 47.1537C237.254 47.2305 237.895 47.1204 238.082 46.9001C238.158 47.0603 238.182 47.2806 238.182 47.4341C238.182 47.631 235.822 47.8146 235.956 47.4574V47.4608Z" fill="#30193B"/>
<path d="M236.96 47.1538C236.76 47.1004 236.88 46.9802 237.007 46.8968C237.271 46.8066 237.491 46.7432 237.538 46.7199C237.664 46.6598 237.698 46.5363 237.698 46.5363L237.831 46.5029C237.831 46.5029 238.058 46.8534 238.078 46.9001C237.895 47.1204 237.254 47.2305 236.957 47.1538H236.96Z" fill="#F98A8A"/>
<path d="M235.695 13.9545C235.692 14.0346 240.335 31.3101 240.335 31.3101L242.164 46.4929L242.427 46.5863C242.427 46.5863 245.311 35.5121 243.615 30.4724C242.771 27.9658 244.383 24.0374 244.313 19.5717C244.28 17.5425 243.422 14.9858 241.733 13.574C240.675 13.3938 237.317 13.7509 235.695 13.9579V13.9545Z" fill="#FF97A6"/>
<path d="M241.569 13.6375C241.569 13.6375 242.717 13.741 244.076 17.2855C245.434 20.83 244.643 27.8657 244.643 27.8657C244.643 27.8657 237.848 30.3656 234.02 28.7235L234.66 15.2696L241.566 13.6342L241.569 13.6375Z" fill="#7474A5"/>
<path d="M241.569 13.6375C241.569 13.6375 242.717 13.741 244.076 17.2855C245.434 20.83 244.643 27.8657 244.643 27.8657C244.643 27.8657 241.642 28.9338 238.899 29.1908C238.862 29.1941 237.948 29.2375 237.948 29.2375C237.948 29.2375 237.924 23.4067 237.958 21.4275C238.041 16.7481 237.48 14.4886 237.48 14.4886L241.566 13.6342L241.569 13.6375Z" fill="#30193B"/>
<path d="M240.451 47.4108C240.501 47.2539 241.062 46.9669 241.479 46.8067C241.356 46.8968 241.239 47.0203 241.442 47.067C241.739 47.1338 242.377 47.0003 242.55 46.7733C242.631 46.9302 242.664 47.1505 242.671 47.304C242.681 47.5009 240.328 47.7746 240.448 47.4141L240.451 47.4108Z" fill="#30193B"/>
<path d="M241.446 47.067C241.242 47.0203 241.359 46.8968 241.482 46.8067C241.739 46.7066 241.96 46.6365 242.006 46.6098C242.13 46.543 242.16 46.4195 242.16 46.4195L242.29 46.3828C242.29 46.3828 242.53 46.7232 242.554 46.77C242.377 46.9969 241.743 47.1304 241.446 47.0637V47.067Z" fill="#FF97A6"/>
<path d="M233.552 12.5228C233.552 12.5228 228.386 12.3926 227.214 11.7251C227.124 11.675 226.974 11.4481 226.924 11.3513C226.563 10.6938 226.026 9.27861 228.596 9.50223C231.503 9.75588 233.596 10.7271 233.596 10.7271C233.596 10.7271 233.479 11.0342 233.549 12.5228H233.552Z" fill="#FF5E4D"/>
<path d="M236.546 4.80281C236.546 4.80281 234.39 9.65235 232.962 11.3011C231.099 13.4539 231.32 10.123 231.32 10.123C231.32 10.123 232.091 7.39279 232.955 6.1779C233.759 5.04312 236.419 3.44106 236.543 4.80281H236.546Z" fill="#FF5E4D"/>
<path d="M233.535 7.33272C233.278 9.44209 233.192 10.2999 233.949 12.98C234.17 13.7643 241.686 14.2482 241.773 13.801C241.803 13.6375 242.046 12.3692 242.18 11.6983C242.817 8.46417 243.061 7.52296 242.6 6.33143C242.28 5.50037 242.096 4.52245 237.751 4.12194C236.386 3.99511 235.378 4.40563 234.944 4.696C234.17 5.21 233.649 6.45492 233.542 7.33272H233.535Z" fill="#F74D41"/>
<path d="M237.551 4.08519C237.551 4.08519 236.583 6.12447 236.453 8.37068C236.312 10.7404 236.746 13.3437 236.893 13.7476C236.893 13.7476 235.064 13.7709 234.156 13.2269C234.02 13.1468 233.923 13.02 233.883 12.8698C233.652 11.9886 232.788 8.37735 233.539 6.26798C234.397 3.85155 237.554 4.08852 237.554 4.08852L237.551 4.08519Z" fill="#FF5E4D"/>
<path d="M240.091 12.1856C240.211 11.3779 240.591 8.76455 240.591 8.76455C240.591 8.76455 240.585 3.89164 242.247 5.6539C243.388 6.86212 242.734 11.4146 241.733 14.028C241.366 14.9825 239.817 14.028 240.091 12.1889V12.1856Z" fill="#ED3B37"/>
<path d="M239.097 12.3559C239.097 12.3559 233.096 13.6208 232.895 14.5287C232.695 15.4365 233.65 16.2676 235.349 16.4411C236.086 16.5179 240.655 16.391 241.647 14.1882C242.571 12.1356 239.097 12.3559 239.097 12.3559Z" fill="#ED3B37"/>
<path d="M236.58 2.82692C236.58 2.82692 237.031 4.36556 237.181 4.49573C237.331 4.6259 237.715 4.71935 237.732 4.27878C237.748 3.83822 237.037 2.63 237.037 2.63L236.58 2.82692Z" fill="#FF97A6"/>
<path d="M236.874 3.76477C237.097 3.90495 237.568 3.89828 237.524 3.58454C237.418 3.3142 237.331 3.16734 237.217 2.95374L236.67 3.18403C236.737 3.40431 236.787 3.51445 236.874 3.76811V3.76477Z" fill="#C95D77"/>
<path d="M237.578 2.41649C237.578 2.14614 237.044 1.30507 237.044 1.30507C236.526 0.787737 235.298 1.74897 235.158 1.99595C235.008 2.2663 235.171 2.60006 235.291 2.85038C235.408 3.1007 235.712 3.50455 235.969 3.63472C236.203 3.75153 236.687 3.71482 236.91 3.59467C237.581 3.2342 237.684 2.96052 237.581 2.41315L237.578 2.41649Z" fill="#FF97A6"/>
<path d="M241.233 12.3892L241.219 13.1201L237.688 14.7622L234.711 14.6187L237.715 13.8277L241.233 12.3892Z" fill="#5561BC"/>
<path d="M227.988 13.5807L237.571 13.8878L241.232 12.3892L228.015 12.1522L227.988 13.5807Z" fill="#AACBE8"/>
<path d="M227.975 14.2949L237.688 14.7622L236.506 7.05566L226.73 7.17582L227.975 14.2949Z" fill="#5575AD"/>
<path d="M238.041 14.5119L237.687 14.7622L236.506 7.05569L236.93 6.96558L238.041 14.5119Z" fill="#5561BC"/>
<path d="M236.931 6.96887L227.512 7.08903L226.728 7.1758L236.503 7.05565L236.931 6.96887Z" fill="#5561BC"/>
<path d="M232.515 14.7889C232.348 14.6187 232.261 14.3484 232.268 14.1815C232.271 14.068 232.338 14.0446 232.338 14.0446C232.338 14.0446 232.305 13.9011 232.408 13.8944C232.472 13.8911 232.635 14.1648 232.812 14.3183C232.919 14.4118 233.049 14.4919 233.136 14.5353C233.136 14.5353 233.039 14.2582 233.126 14.2382C233.212 14.2215 233.323 14.562 233.386 14.7288C233.443 14.8757 232.735 15.0092 232.518 14.7923L232.515 14.7889Z" fill="#FF97A6"/>
<path d="M233.039 14.4819C232.855 14.2383 232.672 13.8177 232.608 13.8511C232.508 13.9045 232.565 14.0681 232.685 14.2883C232.802 14.5053 233.039 14.4853 233.039 14.4853V14.4819Z" fill="#FF97A6"/>
<path d="M227.314 10.5169C227.454 10.4368 227.531 10.3466 227.655 10.2365C227.668 10.2231 227.718 10.1798 227.755 10.133C227.785 10.1063 227.835 10.0696 227.815 10.0262C227.802 10.0029 227.782 9.99619 227.758 9.99952C227.758 9.99952 227.758 9.99952 227.755 9.99952C227.752 9.99952 227.748 10.0029 227.745 10.0029C227.735 10.0029 227.725 10.0062 227.718 10.0095C227.711 10.0095 227.705 10.0162 227.698 10.0162C227.681 10.0229 227.661 10.0296 227.645 10.0396C227.668 10.0129 227.695 9.98284 227.715 9.94946C227.735 9.91608 227.795 9.84266 227.792 9.79927C227.788 9.76923 227.782 9.76923 227.762 9.75254C227.748 9.73919 227.725 9.7492 227.715 9.73585C227.708 9.72584 227.721 9.69914 227.715 9.68913C227.721 9.65575 227.591 9.56897 227.441 9.68579C227.501 9.60902 227.461 9.58232 227.438 9.589C227.348 9.60902 227.151 9.72918 227.107 9.80928C227.021 9.97282 227.264 10.5602 227.321 10.5169H227.314Z" fill="#FF97A6"/>
<path d="M235.565 1.25159C235.565 1.25159 235.615 2.80024 237.067 2.8503C237.067 2.8503 237.151 4.8028 238.946 4.80614C240.742 4.80614 240.952 4.71603 240.952 4.71603L240.188 2.11937L235.565 1.25492V1.25159Z" fill="#C43B72"/>
<path d="M235.582 1.94915L235.615 2.1227C235.625 2.16943 235.669 2.20281 235.719 2.19279C235.769 2.18278 235.799 2.13939 235.789 2.08933L235.756 1.91577L235.582 1.94915ZM235.709 2.13939C235.689 2.14273 235.672 2.12938 235.669 2.11269C235.665 2.096 235.679 2.07598 235.695 2.07264C235.712 2.0693 235.732 2.08265 235.736 2.09934C235.739 2.11603 235.726 2.13605 235.709 2.13939Z" fill="#FD9E38"/>
<path d="M236.67 1.76227L236.94 2.03929C236.96 2.05931 236.987 2.06599 237.014 2.06265L237.461 1.96586L237.504 2.04596C237.504 2.04596 237.661 1.8624 237.668 1.72889C237.675 1.59539 236.673 1.76227 236.673 1.76227H236.67Z" fill="#295A6E"/>
<path d="M234.21 2.55998C234.21 2.55998 234.12 2.76691 235.158 2.31633C235.231 2.28296 235.301 2.24624 235.368 2.20285C235.552 2.07936 235.996 1.80568 236.399 1.79233C236.923 1.7723 236.873 1.92917 237.244 1.87577C237.614 1.82237 237.938 1.69888 237.931 1.61877C237.931 1.61877 237.931 1.59207 237.831 1.60208L237.704 1.2216L237.631 1.18488C237.631 1.18488 237.261 -0.166848 236.049 0.020058C234.837 0.206964 234.741 0.894512 234.677 1.22493C234.634 1.44522 234.641 1.79233 234.651 1.99926C234.654 2.10606 234.604 2.20619 234.514 2.26627C234.387 2.35305 234.22 2.47654 234.213 2.56332L234.21 2.55998Z" fill="#FFCB48"/>
<path d="M237.671 1.20154C237.671 1.20154 237.347 1.42182 236.583 1.40513C235.819 1.38844 235.692 1.59871 235.351 1.70552C235.008 1.81232 234.847 1.87907 234.847 1.87907C234.847 1.87907 234.74 2.18613 234.69 2.2362C234.69 2.2362 234.964 2.32297 235.538 2.01591C236.112 1.70552 236.319 1.67548 236.59 1.70218C236.86 1.72888 237.003 1.84903 237.224 1.81232C237.444 1.77561 237.814 1.66213 237.828 1.59871C237.828 1.59871 237.711 1.2249 237.668 1.20488L237.671 1.20154Z" fill="#FD9E38"/>
<path d="M235.014 2.21947L234.987 1.98584C234.987 1.96247 235.001 1.93911 235.024 1.93243L235.184 1.88905C235.211 1.88237 235.241 1.89906 235.248 1.92576L235.298 2.12935C235.298 2.12935 235.161 2.20612 235.014 2.21947Z" fill="#FFCB48"/>
<path d="M234.984 0.707518C235.098 0.533962 235.255 0.387107 235.435 0.270291C235.525 0.213551 235.622 0.166825 235.722 0.130111C235.822 0.0933975 235.932 0.0767094 236.036 0.063359C236.139 0.0533462 236.246 0.0466709 236.353 0.0533462C236.46 0.0600214 236.566 0.0767094 236.67 0.110086C236.877 0.176838 237.05 0.307004 237.191 0.460534C237.02 0.343718 236.84 0.240252 236.647 0.193526C236.453 0.146799 236.249 0.153474 236.049 0.1735C235.946 0.183513 235.849 0.200201 235.755 0.230239C235.659 0.260278 235.568 0.296992 235.478 0.343718C235.301 0.440509 235.135 0.560663 234.984 0.70418V0.707518Z" fill="#FD9E38"/>
<path d="M243.913 56.5258C243.846 56.5258 243.779 56.5058 243.723 56.4657L235.022 50.4147C234.871 50.3078 234.831 50.1009 234.938 49.9507C235.045 49.8005 235.252 49.7605 235.402 49.8673L244.103 55.9184C244.253 56.0252 244.293 56.2321 244.187 56.3823C244.123 56.4757 244.016 56.5258 243.913 56.5258Z" fill="#5561BC"/>
<path d="M243.803 62.6803C243.736 62.6803 243.669 62.6603 243.612 62.6202L234.911 56.5691C234.761 56.4623 234.721 56.2554 234.828 56.1052C234.931 55.9517 235.141 55.915 235.292 56.0218L243.993 62.0728C244.143 62.1796 244.183 62.3866 244.076 62.5368C244.013 62.6302 243.906 62.6803 243.803 62.6803Z" fill="#5561BC"/>
<path d="M235.104 56.6292C234.997 56.6292 234.894 56.5792 234.827 56.4824C234.724 56.3288 234.764 56.1219 234.914 56.0184L243.939 49.8639C244.092 49.7604 244.299 49.8005 244.403 49.9507C244.506 50.1042 244.466 50.3111 244.316 50.4146L235.291 56.5691C235.234 56.6092 235.168 56.6259 235.104 56.6259V56.6292Z" fill="#767FCE"/>
<path d="M235.105 62.6802C234.998 62.6802 234.895 62.6302 234.828 62.5334C234.724 62.3799 234.765 62.1729 234.918 62.0695L243.836 56.0184C243.99 55.9149 244.197 55.955 244.3 56.1085C244.404 56.262 244.363 56.469 244.21 56.5724L235.292 62.6235C235.235 62.6636 235.168 62.6802 235.105 62.6802Z" fill="#767FCE"/>
<path d="M243.735 68.9383C243.668 68.9383 243.602 68.9183 243.545 68.8782L234.844 62.8271C234.694 62.7203 234.654 62.5134 234.76 62.3632C234.867 62.213 235.074 62.173 235.224 62.2798L243.925 68.3308C244.076 68.4376 244.116 68.6446 244.009 68.7948C243.945 68.8882 243.839 68.9383 243.735 68.9383Z" fill="#5561BC"/>
<path d="M243.629 75.0928C243.562 75.0928 243.495 75.0728 243.438 75.0328L234.737 68.9817C234.587 68.8749 234.547 68.6679 234.654 68.5177C234.757 68.3675 234.968 68.3275 235.118 68.4343L243.819 74.4854C243.969 74.5922 244.009 74.7991 243.902 74.9493C243.839 75.0428 243.732 75.0928 243.629 75.0928Z" fill="#5561BC"/>
<path d="M234.927 69.0418C234.821 69.0418 234.717 68.9918 234.65 68.895C234.547 68.7414 234.587 68.5345 234.737 68.431L243.762 62.2765C243.916 62.173 244.123 62.2131 244.226 62.3633C244.329 62.5168 244.289 62.7237 244.139 62.8272L235.114 68.9817C235.058 69.0218 234.991 69.0385 234.927 69.0385V69.0418Z" fill="#767FCE"/>
<path d="M234.927 75.0928C234.82 75.0928 234.717 75.0428 234.65 74.946C234.547 74.7925 234.587 74.5855 234.74 74.4821L243.658 68.431C243.812 68.3275 244.019 68.3676 244.122 68.5211C244.226 68.6746 244.186 68.8816 244.032 68.985L235.114 75.0361C235.057 75.0762 234.991 75.0928 234.927 75.0928Z" fill="#767FCE"/>
<path d="M243.395 81.3509C243.329 81.3509 243.262 81.3309 243.205 81.2908L234.504 75.2397C234.354 75.1329 234.314 74.926 234.421 74.7758C234.524 74.6256 234.734 74.5856 234.884 74.6924L243.586 80.7434C243.736 80.8502 243.776 81.0572 243.669 81.2074C243.606 81.3008 243.499 81.3509 243.395 81.3509Z" fill="#5561BC"/>
<path d="M243.285 87.5054C243.218 87.5054 243.151 87.4854 243.095 87.4454L234.394 81.3943C234.243 81.2875 234.203 81.0805 234.31 80.9303C234.417 80.7801 234.624 80.7401 234.774 80.8469L243.475 86.898C243.625 87.0048 243.665 87.2117 243.559 87.3619C243.495 87.4554 243.388 87.5054 243.285 87.5054Z" fill="#5561BC"/>
<path d="M234.588 81.4543C234.481 81.4543 234.377 81.4042 234.311 81.3074C234.207 81.1539 234.247 80.947 234.397 80.8435L243.422 74.689C243.576 74.5855 243.783 74.6255 243.886 74.7757C243.99 74.9293 243.95 75.1362 243.799 75.2397L234.774 81.3942C234.718 81.4343 234.651 81.451 234.588 81.451V81.4543Z" fill="#767FCE"/>
<path d="M234.587 87.5054C234.481 87.5054 234.377 87.4554 234.31 87.3586C234.207 87.205 234.247 86.9981 234.4 86.8947L243.319 80.8436C243.472 80.7401 243.679 80.7802 243.782 80.9337C243.886 81.0872 243.846 81.2941 243.692 81.3976L234.774 87.4487C234.718 87.4888 234.651 87.5054 234.587 87.5054Z" fill="#767FCE"/>
<path d="M243.231 93.6633C243.165 93.6633 243.098 93.6432 243.041 93.6032L234.34 87.5521C234.19 87.4453 234.15 87.2384 234.256 87.0882C234.363 86.938 234.57 86.8979 234.72 87.0047L243.422 93.0558C243.572 93.1626 243.612 93.3696 243.505 93.5198C243.442 93.6132 243.335 93.6633 243.231 93.6633Z" fill="#5561BC"/>
<path d="M243.125 99.8179C243.058 99.8179 242.991 99.7979 242.935 99.7579L234.233 93.7068C234.083 93.6 234.043 93.393 234.15 93.2428C234.257 93.0926 234.464 93.0526 234.614 93.1594L243.315 99.2105C243.465 99.3173 243.505 99.5242 243.399 99.6744C243.335 99.7679 243.228 99.8179 243.125 99.8179Z" fill="#5561BC"/>
<path d="M234.424 93.7668C234.317 93.7668 234.213 93.7167 234.146 93.6199C234.043 93.4664 234.083 93.2595 234.233 93.156L243.258 87.0015C243.412 86.898 243.619 86.938 243.722 87.0882C243.826 87.2418 243.785 87.4487 243.635 87.5522L234.61 93.7067C234.554 93.7468 234.487 93.7635 234.424 93.7635V93.7668Z" fill="#767FCE"/>
<path d="M234.423 99.8179C234.317 99.8179 234.213 99.7679 234.146 99.6711C234.043 99.5176 234.083 99.3106 234.236 99.2072L243.155 93.1561C243.308 93.0526 243.515 93.0927 243.618 93.2462C243.722 93.3997 243.682 93.6066 243.528 93.7101L234.61 99.7612C234.553 99.8013 234.487 99.8179 234.423 99.8179Z" fill="#767FCE"/>
<path d="M243.014 105.789C242.948 105.789 242.881 105.769 242.824 105.729L234.123 99.6777C233.973 99.5709 233.933 99.364 234.04 99.2138C234.146 99.0636 234.353 99.0235 234.504 99.1303L243.205 105.181C243.355 105.288 243.395 105.495 243.288 105.645C243.225 105.739 243.118 105.789 243.014 105.789Z" fill="#5561BC"/>
<path d="M234.317 105.789C234.21 105.789 234.107 105.739 234.04 105.642C233.936 105.488 233.976 105.282 234.13 105.178L243.048 99.127C243.202 99.0236 243.409 99.0636 243.512 99.2171C243.615 99.3707 243.575 99.5776 243.422 99.6811L234.504 105.732C234.447 105.772 234.38 105.789 234.317 105.789Z" fill="#767FCE"/>
<path d="M246.733 50.1309H232.171V27.4685C232.171 26.6007 232.875 25.8965 233.743 25.8965H245.161C246.029 25.8965 246.733 26.6007 246.733 27.4685V50.1309ZM232.505 49.7971H246.399V27.4685C246.399 26.7876 245.845 26.2302 245.161 26.2302H233.743C233.062 26.2302 232.505 26.7843 232.505 27.4685V49.7971Z" fill="#767FCE"/>
<path d="M237.004 25.9966H236.67V48.9693H237.004V25.9966Z" fill="#767FCE"/>
<path d="M234.294 25.9966H233.96V48.9693H234.294V25.9966Z" fill="#767FCE"/>
<path d="M239.714 25.9966H239.38V48.9693H239.714V25.9966Z" fill="#767FCE"/>
<path d="M245.135 25.9966H244.801V48.9693H245.135V25.9966Z" fill="#767FCE"/>
<path d="M242.424 26.1702H242.09V48.7958H242.424V26.1702Z" fill="#767FCE"/>
<path d="M246.726 47.6277H232.154V50.1376H246.726V47.6277Z" fill="#D0DAFC"/>
<path d="M241.002 111.056C240.945 111.056 240.888 111.042 240.835 111.012L234.016 107.107C233.856 107.014 233.799 106.81 233.893 106.65C233.986 106.49 234.19 106.436 234.35 106.526L241.169 110.431C241.329 110.525 241.386 110.728 241.292 110.889C241.229 110.995 241.119 111.056 241.002 111.056Z" fill="#5561BC"/>
<path d="M236.273 111.056C236.16 111.056 236.046 110.996 235.983 110.889C235.889 110.729 235.946 110.525 236.103 110.431L243.038 106.406C243.199 106.313 243.402 106.37 243.496 106.526C243.589 106.687 243.532 106.89 243.376 106.984L236.44 111.009C236.387 111.039 236.33 111.052 236.273 111.052V111.056Z" fill="#5561BC"/>
<path d="M244.433 110.722H233.309V111.199H244.433V110.722Z" fill="#5561BC"/>
<path d="M232.438 107.151L233.442 110.962H234.07V107.151H232.438Z" fill="#5561BC"/>
<path d="M233.499 112.805C234.515 112.805 235.338 111.981 235.338 110.965C235.338 109.95 234.515 109.126 233.499 109.126C232.483 109.126 231.66 109.95 231.66 110.965C231.66 111.981 232.483 112.805 233.499 112.805Z" fill="#D0DAFC"/>
<path d="M233.499 111.54C233.816 111.54 234.073 111.283 234.073 110.966C234.073 110.648 233.816 110.391 233.499 110.391C233.182 110.391 232.925 110.648 232.925 110.966C232.925 111.283 233.182 111.54 233.499 111.54Z" fill="#5561BC"/>
<path d="M245.652 107.034L244.647 110.842H244.02V107.034H245.652Z" fill="#5561BC"/>
<path d="M242.751 110.849C242.751 111.863 243.575 112.688 244.59 112.688C245.605 112.688 246.429 111.863 246.429 110.849C246.429 109.834 245.605 109.01 244.59 109.01C243.575 109.01 242.751 109.834 242.751 110.849Z" fill="#D0DAFC"/>
<path d="M244.02 110.849C244.02 111.166 244.277 111.423 244.594 111.423C244.911 111.423 245.168 111.166 245.168 110.849C245.168 110.532 244.911 110.275 244.594 110.275C244.277 110.275 244.02 110.532 244.02 110.849Z" fill="#5561BC"/>
<path d="M246.433 105.455H231.827V107.301H246.433V105.455Z" fill="#D0DAFC"/>
<path d="M217.459 132.153C223.968 132.153 229.244 131.364 229.244 130.39C229.244 129.417 223.968 128.628 217.459 128.628C210.95 128.628 205.674 129.417 205.674 130.39C205.674 131.364 210.95 132.153 217.459 132.153Z" fill="#EEEAFE"/>
<path d="M223.63 130.704C224.498 130.511 223.456 129.519 222.742 129.402C222.936 129.499 223.172 129.636 222.872 129.706C222.432 129.81 221.821 129.419 221.53 129.166C221.427 129.356 221.404 129.619 221.41 129.8C221.417 130.033 222.982 130.848 223.63 130.704Z" fill="#30193B"/>
<path d="M222.856 129.823C223.163 129.776 222.989 129.459 222.772 129.336C222.028 128.908 222.068 128.621 222.068 128.621L221.698 128.615C221.698 128.615 221.564 129.112 221.534 129.169C221.728 129.449 222.205 129.923 222.859 129.823H222.856Z" fill="#FF97A6"/>
<path d="M211.224 130.39C211.1 129.506 212.262 129.589 212.926 129.436C212.746 129.553 212.529 129.719 212.816 129.796C213.233 129.91 214.144 129.766 214.411 129.462C214.515 129.686 214.545 129.997 214.545 130.21C214.545 130.487 211.261 130.624 211.227 130.39H211.224Z" fill="#30193B"/>
<path d="M212.816 129.796C212.532 129.719 212.442 129.523 212.873 129.446C213.26 129.379 213.573 129.232 213.644 129.202C213.824 129.119 213.887 128.825 213.887 128.825L214.238 128.812C214.238 128.812 214.378 129.396 214.408 129.462C214.141 129.766 213.233 129.91 212.812 129.796H212.816Z" fill="#FF97A6"/>
<path d="M210.513 99.9146C211.201 98.0756 211.768 96.7573 212.182 96.5703C214.402 95.6125 217.526 94.2874 217.939 94.3775C218.337 94.6045 220.843 98.3459 221.287 100.749C222.345 106.503 222.358 126.505 222.392 128.535C222.392 128.628 222.325 128.708 222.232 128.722L221.641 128.812C221.551 128.825 221.464 128.772 221.434 128.685C221.057 127.487 218.527 119.383 217.135 112.391C216.177 107.581 215.58 103.486 215.326 103.339C214.662 105.442 214.792 125.043 214.375 128.852C214.305 129.486 213.113 128.992 213.113 128.475C213.113 126.202 210.3 118.715 209.539 111.323C209.015 106.233 209.482 102.671 210.513 99.918V99.9146Z" fill="#30193B"/>
<path d="M210.513 99.9147C211.2 98.0757 211.768 96.7573 212.182 96.5704C212.769 96.3168 213.417 96.0397 214.064 95.7694C214.925 95.4089 212.305 101.136 212.021 109.187C211.908 112.421 212.662 116.603 212.879 119.693C213.146 123.468 213.473 125.414 213.613 127.043C213.677 127.764 213.904 129.149 213.864 129.139C213.326 128.995 213.16 128.668 213.116 128.478C212.575 126.132 210.303 118.719 209.542 111.326C209.018 106.236 209.485 102.675 210.516 99.9214L210.513 99.9147Z" fill="#3B2B5B"/>
<path d="M202.423 95.5158C203.1 95.0719 206.141 93.6534 206.141 93.6534C206.141 93.6534 208.137 90.7764 208.721 90.1088C208.991 89.8018 209.325 89.5014 209.325 89.5014C209.649 89.201 210.406 88.9941 211.541 88.8339C211.194 89.705 208.971 92.5987 208.975 92.4819C208.554 93.1761 208.023 93.9537 207.426 94.638C206.765 95.3956 206.321 95.8629 205.247 96.8742C204.192 97.8654 201.812 97.248 201.812 97.248C201.812 97.248 201.749 95.9597 202.426 95.5158H202.423Z" fill="#F8F7FD"/>
<path d="M215.893 89.1977C216.263 90.2757 216.991 92.2082 218.186 94.5612C218.186 94.5612 218.356 95.0986 216.133 96.4169C214.037 97.6585 211.49 97.545 211.49 97.545C211.49 97.545 210.426 95.8862 209.505 93.8236C208.517 91.6074 208.747 90.0721 209.097 89.6916C209.238 89.5381 211.664 87.609 214.114 87.7825C214.935 87.8426 215.629 88.4167 215.896 89.1943L215.893 89.1977Z" fill="#EEEAFE"/>
<path d="M200.29 92.9051L198.911 94.6143L202.789 97.7434L204.168 96.0343L200.29 92.9051Z" fill="#CBB3FC"/>
<path d="M190.811 77.1121C193.014 77.1121 195.083 77.8431 196.795 79.2248C198.778 80.8236 200.016 83.1032 200.29 85.6431C200.56 88.183 199.829 90.6728 198.231 92.6554C196.412 94.9116 193.698 96.2033 190.788 96.2033C188.585 96.2033 186.516 95.4723 184.803 94.0906C182.821 92.4918 181.583 90.2123 181.309 87.6723C181.039 85.1324 181.77 82.6426 183.368 80.66C185.187 78.4038 187.901 77.1121 190.814 77.1121M190.814 74.4487C187.247 74.4487 183.709 76.0007 181.296 78.9879C177.067 84.2279 177.891 91.9345 183.131 96.1632C185.384 97.9822 188.094 98.8667 190.788 98.8667C194.356 98.8667 197.897 97.3147 200.307 94.3275C204.535 89.0875 203.711 81.3809 198.471 77.1522C196.218 75.3332 193.508 74.4487 190.814 74.4487Z" fill="#3B2B5B"/>
<path d="M212.108 106.737L214.938 103.23L204.875 95.1105L202.045 98.6171L212.108 106.737Z" fill="#FF5E4D"/>
<path d="M211.344 106.124L214.174 102.617L205.636 95.728L202.806 99.2346L211.344 106.124Z" fill="#3B2B5B"/>
<g opacity="0.69">
<path d="M199.111 93.1363C202.695 88.5423 201.877 81.9127 197.283 78.3286C192.689 74.7445 186.059 75.5633 182.475 80.1573C178.891 84.7513 179.71 91.3809 184.304 94.965C188.898 98.5491 195.527 97.7304 199.111 93.1363Z" fill="#D5EAF5"/>
</g>
<path d="M202.519 97.7319C202.496 97.7319 202.476 97.7486 202.452 97.742C202.262 97.6752 201.347 97.3281 201.358 96.9643C201.374 96.4036 201.975 96.0464 202.152 96.1432C202.312 96.23 202.092 96.5438 202.092 96.5438C202.092 96.5438 202.072 96.4737 202.239 96.5137C202.406 96.5538 202.242 96.8942 202.239 97.0878C202.239 97.2747 202.809 97.6952 202.516 97.7319H202.519Z" fill="#FF97A6"/>
<path d="M205.76 97.9588C205.76 97.9588 205.64 97.8654 205.53 97.7686C205.403 97.6551 205.29 97.535 205.373 97.5316C205.457 97.5316 205.59 97.5783 205.72 97.6484C206.014 97.8053 206.305 98.059 206.037 98.0456C205.867 98.0356 205.76 97.9622 205.76 97.9622V97.9588Z" fill="#FF97A6"/>
<path d="M206.404 98.1091C206.388 98.059 206.351 98.0189 206.301 97.9989C206.134 97.9322 205.733 97.7753 205.547 97.7586C205.31 97.7352 204.632 97.9488 204.582 98.0723C204.532 98.1958 204.869 98.1625 204.869 98.1625C204.869 98.1625 204.498 98.1825 204.482 98.346C204.465 98.5129 205.036 98.5129 205.036 98.5129C205.036 98.5129 204.836 98.6865 204.952 98.7098C205.046 98.7265 205.36 98.7132 205.567 98.7065C205.63 98.7065 205.864 98.6831 205.92 98.6564C206.094 98.583 206.468 98.4195 206.474 98.3861C206.481 98.356 206.434 98.2025 206.401 98.1091H206.404Z" fill="#FF97A6"/>
<path d="M214.928 96.981C213.173 97.6184 211.491 97.545 211.491 97.545C211.491 97.545 210.479 95.8628 209.505 93.8236C208.447 91.6074 208.76 90.0855 209.098 89.6916C209.391 89.3478 210.453 88.7671 210.453 88.7671C210.453 88.7671 209.999 91.3638 211.007 93.3396C212.128 95.5358 215.142 96.9042 214.928 96.981Z" fill="#F8F7FD"/>
<path d="M213.68 87.946C213.827 87.6924 214.708 87.9994 214.882 88.2397C215.315 88.8439 215.472 89.1876 215.86 90.2757C216.454 91.9545 216.384 95.3555 215.255 97.1445C214.421 98.4695 207.973 100.662 206.534 98.7866C206 98.089 206.271 97.5717 206.271 97.5717L213.747 95.1219L213.363 90.6128C213.363 90.6128 213.093 88.9573 213.683 87.9427L213.68 87.946Z" fill="#EEEAFE"/>
<path d="M215.856 90.2756C216.1 90.8163 216.233 91.4071 216.303 91.9978C216.373 92.5886 216.38 93.1894 216.34 93.7835C216.293 94.3775 216.2 94.9716 216.026 95.5457C215.859 96.1164 215.612 96.6772 215.252 97.1478C215.512 96.6171 215.676 96.053 215.803 95.489C215.926 94.9216 216.003 94.3442 216.043 93.7634C216.09 93.1827 216.096 92.6019 216.073 92.0179C216.043 91.4371 215.99 90.853 215.856 90.279V90.2756Z" fill="#F8F7FD"/>
<path d="M212.022 95.6893C212.302 95.5691 212.583 95.4623 212.866 95.3522C213.147 95.2387 213.434 95.1386 213.717 95.0318L213.651 95.1319C213.557 94.3843 213.474 93.6333 213.41 92.8824C213.34 92.1314 213.284 91.3804 213.233 90.6261V90.6362C213.203 90.3992 213.197 90.1722 213.197 89.9386C213.197 89.7083 213.21 89.4747 213.237 89.2444C213.297 88.7871 213.424 88.3265 213.681 87.946C213.587 88.1563 213.52 88.3699 213.474 88.5902C213.43 88.8105 213.414 89.0341 213.4 89.2577C213.38 89.705 213.414 90.1589 213.487 90.5928V90.5994V90.6028C213.567 91.3537 213.637 92.1047 213.697 92.8557C213.761 93.6066 213.808 94.3609 213.841 95.1152V95.1219C213.841 95.1653 213.814 95.202 213.774 95.2154C213.484 95.2988 213.193 95.3856 212.9 95.4623C212.606 95.5391 212.316 95.6192 212.019 95.6893H212.022Z" fill="#F8F7FD"/>
<path d="M210.4 87.5021C210.4 87.5021 211.341 88.3899 211.318 88.5768C211.294 88.7637 211.007 89.1842 210.6 89.0774C210.193 88.9706 209.789 87.9126 209.789 87.9126L210.4 87.5021Z" fill="#FF97A6"/>
<path d="M211.053 88.173C210.88 88.4199 210.643 88.6002 210.126 88.6002C209.989 88.4166 209.989 88.3599 209.905 88.183L210.613 87.7057C210.743 87.8359 210.913 88.0094 211.053 88.1696V88.173Z" fill="#C95D77"/>
<path d="M208.557 88.1596C208.437 88.0495 208.244 87.5255 208.097 87.0849C207.973 86.7178 208.177 86.3239 208.547 86.2104C209.121 86.0336 209.765 85.8733 209.972 85.9201C210.299 85.9968 210.443 86.3707 210.56 86.651C210.673 86.928 210.78 87.4654 210.697 87.7624C210.623 88.0361 210.243 88.3932 209.986 88.4867C209.211 88.7604 208.921 88.6436 208.557 88.163V88.1596Z" fill="#FF97A6"/>
<path d="M209.449 86.4374C209.449 86.4374 208.658 87.502 207.646 87.4153C206.635 87.3285 206.895 86.928 206.895 86.928C206.895 86.928 208.938 86.1603 209.395 86.4374" fill="#3B2B5B"/>
<path d="M209.448 86.0703C209.448 86.0703 210.002 87.7525 210.636 87.6256C210.913 87.5689 210.913 86.0703 210.913 86.0703H209.448Z" fill="#3B2B5B"/>
<path d="M208.457 86.5576V86.7645C208.457 86.8213 208.504 86.868 208.56 86.868C208.617 86.868 208.664 86.8213 208.664 86.7645V86.5576H208.457ZM208.56 86.8046C208.537 86.8046 208.52 86.7879 208.52 86.7645C208.52 86.7412 208.537 86.7245 208.56 86.7245C208.584 86.7245 208.601 86.7412 208.601 86.7645C208.601 86.7879 208.584 86.8046 208.56 86.8046Z" fill="#FD9E38"/>
<path d="M209.756 86.5776L210.01 86.9581C210.026 86.9848 210.056 86.9982 210.086 86.9982L210.624 86.9848L210.657 87.085C210.657 87.085 210.877 86.9047 210.914 86.7512C210.951 86.5977 209.756 86.5776 209.756 86.5776Z" fill="#295A6E"/>
<path d="M206.741 86.968C206.741 86.968 206.594 87.1883 207.889 86.8913C207.98 86.8712 208.07 86.8412 208.156 86.8045C208.393 86.701 208.968 86.4808 209.438 86.5508C210.046 86.641 209.955 86.8112 210.396 86.8279C210.837 86.8445 211.237 86.7711 211.244 86.6777C211.244 86.6777 211.247 86.6443 211.134 86.6376L211.067 86.1737L210.99 86.1169C210.99 86.1169 210.85 84.4748 209.411 84.4315C207.97 84.3847 207.713 85.1624 207.566 85.5295C207.469 85.7732 207.402 86.177 207.365 86.4207C207.349 86.5442 207.265 86.651 207.152 86.6977C206.985 86.7678 206.768 86.8779 206.738 86.9747L206.741 86.968Z" fill="#FFCB48"/>
<path d="M211.033 86.1436C211.033 86.1436 210.613 86.3272 209.732 86.1436C208.854 85.9601 208.664 86.1737 208.243 86.2271C207.822 86.2772 207.622 86.3205 207.622 86.3205C207.622 86.3205 207.432 86.651 207.365 86.6977C207.365 86.6977 207.666 86.8579 208.393 86.6243C209.121 86.3906 209.368 86.3973 209.675 86.4874C209.982 86.5775 210.122 86.7444 210.386 86.7511C210.649 86.7578 211.1 86.7044 211.13 86.6343C211.13 86.6343 211.077 86.177 211.03 86.1436H211.033Z" fill="#FD9E38"/>
<path d="M207.746 86.7478L207.766 86.4708C207.766 86.4407 207.793 86.4174 207.82 86.414L208.016 86.3973C208.05 86.3973 208.08 86.4207 208.08 86.4541L208.093 86.7011C208.093 86.7011 207.92 86.7611 207.746 86.7445V86.7478Z" fill="#FFCB48"/>
<path d="M208.033 84.9955C208.203 84.8186 208.417 84.6818 208.647 84.5883C208.764 84.5416 208.884 84.5116 209.011 84.4882C209.138 84.4682 209.265 84.4715 209.388 84.4782C209.512 84.4882 209.635 84.5049 209.759 84.5349C209.879 84.565 210.002 84.6084 210.113 84.6684C210.336 84.7886 210.51 84.9788 210.64 85.1858C210.466 85.0122 210.283 84.8553 210.069 84.7619C209.856 84.6651 209.619 84.6284 209.382 84.6117C209.261 84.6017 209.145 84.5983 209.031 84.6117C208.914 84.625 208.801 84.6517 208.687 84.6851C208.46 84.7585 208.243 84.862 208.04 84.9989L208.033 84.9955Z" fill="#FD9E38"/>
</g>
<defs>
<clipPath id="clip0_157_605">
<rect width="283.827" height="171.53" fill="white"/>
</clipPath>
</defs>
</svg>
