<svg width="40" height="42" viewBox="0 0 40 42" fill="none" xmlns="http://www.w3.org/2000/svg">
<g clip-path="url(#clip0_0_251)">
<path d="M38.4131 28.0487H31.9915C31.1135 28.0487 30.4047 27.3399 30.4047 26.4619V23.2775H9.59534V26.4619C9.59534 27.3399 8.88654 28.0487 8.00846 28.0487H1.58688C0.708807 28.0487 0 27.3399 0 26.4619V9.34469C0 8.46662 0.708807 7.75781 1.58688 7.75781H38.4131C39.2912 7.75781 40 8.46662 40 9.34469V26.4619C40 27.3399 39.2912 28.0487 38.4131 28.0487ZM33.5784 24.875H36.8262V10.9316H3.17376V24.875H6.42158V21.6906C6.42158 20.8126 7.13039 20.1038 8.00846 20.1038H31.9915C32.8696 20.1038 33.5784 20.8126 33.5784 21.6906V24.875Z" fill="#1C2338"/>
<path d="M31.9916 10.9316H8.00851C7.13044 10.9316 6.42163 10.2227 6.42163 9.34467V2.23544C6.42163 1.35737 7.13044 0.64856 8.00851 0.64856H31.9916C32.8697 0.64856 33.5785 1.35737 33.5785 2.23544V9.34467C33.5785 10.2227 32.8697 10.9316 31.9916 10.9316ZM9.59539 7.75779H30.4047V3.82232H9.59539V7.75779Z" fill="#1C2338"/>
<path d="M31.9916 21.6801H8.00854V39.9821H31.9916V21.6801Z" fill="#487CFF"/>
<path d="M31.9916 41.5796H8.00851C7.13044 41.5796 6.42163 40.8707 6.42163 39.9927V21.6906C6.42163 20.8126 7.13044 20.1038 8.00851 20.1038H31.9916C32.8697 20.1038 33.5785 20.8126 33.5785 21.6906V39.9927C33.5785 40.8707 32.8697 41.5796 31.9916 41.5796ZM9.59539 38.4058H30.4047V23.2775H9.59539V38.4058Z" fill="#1C2338"/>
<path d="M18.2809 35.1685H14.3137C13.4356 35.1685 12.7268 34.4597 12.7268 33.5816C12.7268 32.7036 13.4356 31.9948 14.3137 31.9948H18.2809C19.159 31.9948 19.8678 32.7036 19.8678 33.5816C19.8678 34.4597 19.159 35.1685 18.2809 35.1685Z" fill="#1C2338"/>
<path d="M25.6229 29.6038H14.2502C13.3721 29.6038 12.6633 28.895 12.6633 28.0169C12.6633 27.1389 13.3721 26.4301 14.2502 26.4301H25.6229C26.5009 26.4301 27.2097 27.1389 27.2097 28.0169C27.2097 28.895 26.5009 29.6038 25.6229 29.6038Z" fill="#1C2338"/>
<path d="M31.9916 16.3058H31.05C30.1719 16.3058 29.4631 15.597 29.4631 14.719C29.4631 13.8409 30.1719 13.1321 31.05 13.1321H31.9916C32.8696 13.1321 33.5784 13.8409 33.5784 14.719C33.5784 15.597 32.8696 16.3058 31.9916 16.3058Z" fill="#1C2338"/>
</g>
<defs>
<clipPath id="clip0_0_251">
<rect width="40" height="40.931" fill="white" transform="translate(0 0.64856)"/>
</clipPath>
</defs>
</svg>
