<svg width="161" height="30" viewBox="0 0 161 30" fill="none" xmlns="http://www.w3.org/2000/svg">
<g clip-path="url(#clip0_1_573)">
<path d="M9.44096 15.1319L0.320352 0.979919H7.87688L13.6244 10.289L19.5226 0.979919H26.7776L17.6005 14.9058L27.0791 29.5101H19.6168L13.4925 19.6734L7.23618 29.5101H0L9.44096 15.1319Z" fill="#0D35AC"/>
<path d="M29.9435 0.979919H40.9108C48.3354 0.979919 52.6696 5.1068 52.6696 11.4196C52.6696 17.7324 48.3354 21.9158 40.9108 21.9158H36.3317V29.5101H29.9623V0.979919H29.9435ZM40.6282 16.2814C44.1709 16.2814 46.3003 14.6043 46.3003 11.4196C46.3003 8.23494 44.152 6.61434 40.6282 6.61434H36.3128V16.2814H40.6282Z" fill="#0D35AC"/>
<path d="M85.5527 23.4234V28.9636H55.3077V23.4234H67.4246V18.8819H56.966V0.810303H62.7889V4.61684H78.1281V0.810303H83.951V18.8819H73.4736V23.4234H85.5904H85.5527ZM62.7701 13.5867H78.1092V9.83668H62.7701V13.5867Z" fill="#202020"/>
<path d="M125.087 29.9812H119.17V0.0942383H125.087V30V29.9812Z" fill="#202020"/>
<path d="M129.969 23.4234H160.214V28.9636H129.969V23.4234ZM130.572 19.1834V13.5867C136.526 13.549 142.048 8.02764 143.141 0L149.152 0.942211C148.869 3.05276 148.304 4.99372 147.513 6.8593L160.251 14.5289L157.142 19.3153L144.893 11.4761C141.426 16.1683 136.281 19.1457 130.572 19.1834Z" fill="#202020"/>
<path d="M91.3003 29.2085L92.6571 22.5188C90.6973 20.1256 89.6232 17.1482 89.6232 14.0766C89.6232 6.72739 95.6156 0.734924 102.965 0.734924C110.314 0.734924 116.307 6.72739 116.307 14.0766C116.307 21.4259 110.314 27.4183 102.965 27.4183C101.288 27.4183 99.6671 27.1168 98.1219 26.5138L91.2815 29.2085H91.3003Z" fill="#0D35AC"/>
<path d="M100.685 16.093V12.9083C100.685 12.1734 99.5352 12.1734 99.5352 12.9083V16.093C99.5352 16.8279 100.685 16.8279 100.685 16.093Z" fill="white"/>
<path d="M93.8442 12.2299V16.7525C93.8442 17.4874 94.9937 17.4874 94.9937 16.7525V12.2299C94.9937 11.495 93.8442 11.495 93.8442 12.2299Z" fill="white"/>
<path d="M110.955 13.2663V15.7349C110.955 16.4699 112.104 16.4699 112.104 15.7349V13.2663C112.104 12.5314 110.955 12.5314 110.955 13.2663Z" fill="white"/>
<path d="M105.264 8.63066V20.3706C105.264 21.1055 106.413 21.1055 106.413 20.3706V8.63066C106.413 7.89574 105.264 7.89574 105.264 8.63066Z" fill="white"/>
<path d="M97.8392 19.2399V9.78014C97.8392 9.04521 96.6897 9.04521 96.6897 9.78014V19.2399C96.6897 19.9749 97.8392 19.9749 97.8392 19.2399Z" fill="white"/>
<path d="M103.549 18.2977V10.6847C103.549 9.94975 102.4 9.94975 102.4 10.6847V18.2977C102.4 19.0327 103.549 19.0327 103.549 18.2977Z" fill="white"/>
<path d="M108.109 11.1558V17.8267C108.109 18.5616 109.259 18.5616 109.259 17.8267V11.1558C109.259 10.4209 108.109 10.4209 108.109 11.1558Z" fill="white"/>
</g>
<defs>
<clipPath id="clip0_1_573">
<rect width="160.251" height="30" fill="white"/>
</clipPath>
</defs>
</svg>
