<svg width="161" height="31" viewBox="0 0 161 31" fill="none" xmlns="http://www.w3.org/2000/svg">
<g clip-path="url(#clip0_0_277)">
<path d="M9.44096 15.7169L0.320352 1.56488H7.87688L13.6244 10.8739L19.5226 1.56488H26.7776L17.6005 15.4908L27.0791 30.095H19.6168L13.4925 20.2583L7.23618 30.095H0L9.44096 15.7169Z" fill="white"/>
<path d="M29.9434 1.56488H40.9107C48.3353 1.56488 52.6695 5.69176 52.6695 12.0046C52.6695 18.3174 48.3353 22.5008 40.9107 22.5008H36.3316V30.095H29.9622V1.56488H29.9434ZM40.628 16.8664C44.1707 16.8664 46.3001 15.1893 46.3001 12.0046C46.3001 8.8199 44.1519 7.1993 40.628 7.1993H36.3127V16.8664H40.628Z" fill="white"/>
<path d="M85.5528 24.0083V29.5485H55.3079V24.0083H67.4247V19.4669H56.9662V1.39526H62.789V5.2018H78.1282V1.39526H83.9511V19.4669H73.4737V24.0083H85.5905H85.5528ZM62.7702 14.1716H78.1094V10.4216H62.7702V14.1716Z" fill="white"/>
<path d="M125.182 30.5849H119.265V0.697998H125.182V30.6038V30.5849Z" fill="white"/>
<path d="M129.969 24.0083H160.213V29.5485H129.969V24.0083ZM130.572 19.7684V14.1716C136.526 14.134 142.048 8.6126 143.141 0.584961L149.152 1.52717C148.869 3.63772 148.304 5.57868 147.512 7.44426L160.251 15.1139L157.142 19.9003L144.893 12.0611C141.426 16.7533 136.281 19.7307 130.572 19.7684Z" fill="white"/>
<path d="M91.3002 29.7935L92.657 23.1038C90.6972 20.7106 89.623 17.7332 89.623 14.6616C89.623 7.31235 95.6155 1.31989 102.965 1.31989C110.314 1.31989 116.306 7.31235 116.306 14.6616C116.306 22.0108 110.314 28.0033 102.965 28.0033C101.288 28.0033 99.667 27.7018 98.1218 27.0988L91.2813 29.7935H91.3002Z" fill="white"/>
<path d="M100.685 16.6779V13.4933C100.685 12.7583 99.5352 12.7583 99.5352 13.4933V16.6779C99.5352 17.4129 100.685 17.4129 100.685 16.6779Z" fill="#0D35AC"/>
<path d="M93.8442 12.8149V17.3375C93.8442 18.0724 94.9937 18.0724 94.9937 17.3375V12.8149C94.9937 12.0799 93.8442 12.0799 93.8442 12.8149Z" fill="#0D35AC"/>
<path d="M110.955 13.8513V16.3199C110.955 17.0548 112.104 17.0548 112.104 16.3199V13.8513C112.104 13.1164 110.955 13.1164 110.955 13.8513Z" fill="#0D35AC"/>
<path d="M105.264 9.21562V20.9556C105.264 21.6905 106.413 21.6905 106.413 20.9556V9.21562C106.413 8.4807 105.264 8.4807 105.264 9.21562Z" fill="#0D35AC"/>
<path d="M97.8392 19.8249V10.3651C97.8392 9.63017 96.6897 9.63017 96.6897 10.3651V19.8249C96.6897 20.5598 97.8392 20.5598 97.8392 19.8249Z" fill="#0D35AC"/>
<path d="M103.549 18.8827V11.2696C103.549 10.5347 102.399 10.5347 102.399 11.2696V18.8827C102.399 19.6176 103.549 19.6176 103.549 18.8827Z" fill="#0D35AC"/>
<path d="M108.109 11.7408V18.4116C108.109 19.1465 109.259 19.1465 109.259 18.4116V11.7408C109.259 11.0058 108.109 11.0058 108.109 11.7408Z" fill="#0D35AC"/>
</g>
<defs>
<clipPath id="clip0_0_277">
<rect width="160.251" height="30" fill="white" transform="translate(0 0.584961)"/>
</clipPath>
</defs>
</svg>
