<svg width="17" height="17" viewBox="0 0 17 17" fill="none" xmlns="http://www.w3.org/2000/svg">
<mask id="mask0_85_728" style="mask-type:luminance" maskUnits="userSpaceOnUse" x="0" y="0" width="17" height="17">
<path d="M17 0H0V17H17V0Z" fill="white"/>
</mask>
<g mask="url(#mask0_85_728)">
<path d="M15.6602 15.1436L12.0312 11.5146M11.7732 2.73062C12.3331 3.2904 12.7773 3.95499 13.0803 4.68644C13.3834 5.4179 13.5393 6.20188 13.5393 6.99362C13.5393 7.78536 13.3834 8.56935 13.0803 9.30081C12.7773 10.0323 12.3331 10.6969 11.7732 11.2566C11.2169 11.8226 10.5534 12.2721 9.82145 12.5789C9.08954 12.8857 8.30385 13.0438 7.51022 13.0438C6.7166 13.0438 5.93091 12.8857 5.199 12.5789C4.46709 12.2721 3.8036 11.8226 3.24723 11.2566C2.13207 10.1228 1.51006 8.59429 1.51665 7.00398C1.52325 5.41367 2.15793 3.89038 3.28245 2.76585C4.40698 1.64132 5.93028 1.00665 7.52059 1.00005C9.1109 0.993453 10.6394 1.61547 11.7732 2.73062Z" stroke="#2D384A" stroke-width="2" stroke-linecap="round" stroke-linejoin="round"/>
</g>
</svg>
