<svg width="17" height="18" viewBox="0 0 17 18" fill="none" xmlns="http://www.w3.org/2000/svg">
<path d="M15.274 16.0567L11.645 12.4277M11.387 3.64371C11.9469 4.20348 12.3911 4.86807 12.6941 5.59953C12.9971 6.33098 13.1531 7.11497 13.1531 7.90671C13.1531 8.69845 12.9971 9.48244 12.6941 10.2139C12.3911 10.9453 11.9469 11.6099 11.387 12.1697C10.8306 12.7357 10.1671 13.1852 9.43522 13.492C8.70331 13.7988 7.91762 13.9568 7.12399 13.9568C6.33037 13.9568 5.54468 13.7988 4.81277 13.492C4.08086 13.1852 3.41737 12.7357 2.86099 12.1697C1.74584 11.0359 1.12382 9.50738 1.13042 7.91707C1.13702 6.32676 1.7717 4.80347 2.89622 3.67894C4.02075 2.55441 5.54405 1.91974 7.13436 1.91314C8.72467 1.90654 10.2532 2.52855 11.387 3.64371Z" stroke="white" stroke-width="2" stroke-linecap="round" stroke-linejoin="round"/>
</svg>
