<svg width="14" height="16" viewBox="0 0 14 16" fill="none" xmlns="http://www.w3.org/2000/svg">
<g clip-path="url(#clip0_393_33)">
<path d="M11.9804 5.33023V4.66023C11.9804 2.08023 9.89039 -0.00976562 7.31039 -0.00976562C4.73039 -0.00976562 2.65039 2.09023 2.65039 4.67023V5.34023H0.650391V14.0102C0.650391 15.1102 1.55039 16.0102 2.65039 16.0102H11.9804C13.0804 16.0102 13.9804 15.1102 13.9804 14.0102V5.33023H11.9804ZM3.98039 4.66023C3.98039 2.82023 5.47039 1.33023 7.31039 1.33023C9.15039 1.33023 10.6404 2.82023 10.6404 4.66023V5.33023H3.98039V4.66023ZM12.6504 13.9902C12.6504 14.3602 12.3504 14.6602 11.9804 14.6602H2.65039C2.28039 14.6602 1.98039 14.3602 1.98039 13.9902V6.66023H12.6504V13.9902Z" fill="#2D384A"/>
<path d="M7.98039 9.33008H6.65039V12.0001H7.98039V9.33008Z" fill="#2D384A"/>
</g>
<defs>
<clipPath id="clip0_393_33">
<rect width="13.33" height="16" fill="white" transform="translate(0.650391)"/>
</clipPath>
</defs>
</svg>
