<svg width="152" height="92" viewBox="0 0 152 92" fill="none" xmlns="http://www.w3.org/2000/svg">
<path d="M146.946 90.3359H150.895" stroke="#0042FF" stroke-width="2" stroke-miterlimit="10" stroke-linecap="round"/>
<path d="M1.3938 90.3359H144.497" stroke="#323233" stroke-width="2" stroke-linecap="round" stroke-linejoin="round"/>
<path d="M75.8928 90.301V77.6257C75.8928 77.3666 76.1021 77.1573 76.3613 77.1573H102.654C102.913 77.1573 103.122 77.3666 103.122 77.6257V90.301" stroke="black" stroke-width="2" stroke-linecap="round" stroke-linejoin="round"/>
<path d="M127.905 48.2761L136.626 34.2628C138.004 31.7786 141.136 30.884 143.617 32.262C146.099 33.6399 146.996 36.7719 145.618 39.2537L129.963 66.9538C129.305 68.1174 128.184 68.9447 126.878 69.2312L104.328 74.1573C102.928 74.4463 101.246 74.8101 100.68 76.9405" stroke="black" stroke-width="2" stroke-linecap="round" stroke-linejoin="round"/>
<path d="M82.6428 81.6647C83.1711 82.3923 83.0091 83.4114 82.2815 83.9396C81.554 84.4679 80.5349 84.3059 80.0066 83.5759C79.4784 82.8483 79.6404 81.8292 80.3679 81.3009C81.0955 80.7727 82.1146 80.9347 82.6428 81.6622V81.6647Z" stroke="#0042FF" stroke-width="2" stroke-miterlimit="10" stroke-linecap="round"/>
<path d="M109.501 58.6266L124.085 53.9596C126.816 53.1797 128.395 50.3317 127.615 47.6008C126.836 44.8699 123.988 43.2902 121.257 44.0701L93.4867 52.2877C88.1345 53.8724 84.0606 58.2329 82.8422 63.6797L79.8845 76.9206" fill="white"/>
<path d="M109.501 58.6266L124.085 53.9596C126.816 53.1797 128.395 50.3317 127.615 47.6008C126.836 44.8699 123.988 43.2902 121.257 44.0701L93.4867 52.2877C88.1345 53.8724 84.0606 58.2329 82.8422 63.6797L79.8845 76.9206" stroke="black" stroke-width="2" stroke-linecap="round" stroke-linejoin="round"/>
<path d="M75.843 90.301V77.6257C75.843 77.3666 75.6337 77.1573 75.3746 77.1573H49.0822C48.8231 77.1573 48.6138 77.3666 48.6138 77.6257V90.301" stroke="black" stroke-width="2" stroke-linecap="round" stroke-linejoin="round"/>
<path d="M23.8315 48.2761L15.1105 34.2628C13.7326 31.7786 10.6006 30.884 8.11884 32.262C5.63711 33.6399 4.7401 36.7719 6.11801 39.2537L21.7733 66.9538C22.4311 68.1174 23.5524 68.9447 24.858 69.2312L47.4079 74.1573C48.8082 74.4463 50.4901 74.8101 51.0557 76.9405" stroke="black" stroke-width="2" stroke-linecap="round" stroke-linejoin="round"/>
<path d="M69.0931 81.6647C68.5648 82.3923 68.7268 83.4114 69.4543 83.9396C70.1819 84.4679 71.201 84.3059 71.7293 83.5759C72.2575 82.8483 72.0955 81.8292 71.368 81.3009C70.6404 80.7727 69.6213 80.9347 69.0931 81.6622V81.6647Z" stroke="#0042FF" stroke-width="2" stroke-miterlimit="10" stroke-linecap="round"/>
<path d="M42.2352 58.6266L27.6513 53.9596C24.9204 53.1797 23.3406 50.3317 24.1205 47.6008C24.9004 44.8699 27.7485 43.2902 30.4794 44.0701L58.2493 52.2877C63.6014 53.8724 67.6754 58.2329 68.8938 63.6797L71.8514 76.9206" fill="white"/>
<path d="M42.2352 58.6266L27.6513 53.9596C24.9204 53.1797 23.3406 50.3317 24.1205 47.6008C24.9004 44.8699 27.7485 43.2902 30.4794 44.0701L58.2493 52.2877C63.6014 53.8724 67.6754 58.2329 68.8938 63.6797L71.8514 76.9206" stroke="black" stroke-width="2" stroke-linecap="round" stroke-linejoin="round"/>
<path d="M104.47 14.536C104.47 6.35828 97.8448 0.599976 89.667 0.599976C83.6521 0.599976 78.4818 4.19051 76.1645 9.34831C73.8473 4.19051 68.682 0.599976 62.662 0.599976C54.4868 0.599976 47.8589 6.35828 47.8589 14.536C47.8589 15.8043 48.417 20.3741 51.5615 24.9862C59.226 36.2212 74.2933 49.3724 76.1645 49.3724C78.3174 49.3724 93.0134 36.1465 100.334 24.9862C102.821 21.1963 104.47 15.6373 104.47 14.536Z" fill="#0042FF"/>
<path d="M122.607 3.91644V7.14319" stroke="#0042FF" stroke-width="2" stroke-linecap="round" stroke-linejoin="round"/>
<path d="M117.444 9.07922H120.671" stroke="#0042FF" stroke-width="2" stroke-linecap="round" stroke-linejoin="round"/>
<path d="M122.607 14.2445V11.0153" stroke="#0042FF" stroke-width="2" stroke-linecap="round" stroke-linejoin="round"/>
<path d="M127.772 9.07922H124.546" stroke="#0042FF" stroke-width="2" stroke-linecap="round" stroke-linejoin="round"/>
<path d="M33.9329 24.1041V27.3309" stroke="#323233" stroke-width="2" stroke-linecap="round" stroke-linejoin="round"/>
<path d="M28.77 29.2669H31.9968" stroke="#323233" stroke-width="2" stroke-linecap="round" stroke-linejoin="round"/>
<path d="M33.9329 34.4322V31.2029" stroke="#323233" stroke-width="2" stroke-linecap="round" stroke-linejoin="round"/>
<path d="M39.0981 29.2669H35.8689" stroke="#323233" stroke-width="2" stroke-linecap="round" stroke-linejoin="round"/>
<path d="M114.92 25.041V28.2703" stroke="#323233" stroke-width="2" stroke-linecap="round" stroke-linejoin="round"/>
<path d="M109.755 30.2063H112.984" stroke="#323233" stroke-width="2" stroke-linecap="round" stroke-linejoin="round"/>
<path d="M114.92 35.3716V32.1423" stroke="#323233" stroke-width="2" stroke-linecap="round" stroke-linejoin="round"/>
<path d="M120.083 30.2063H116.856" stroke="#323233" stroke-width="2" stroke-linecap="round" stroke-linejoin="round"/>
</svg>
