<svg width="152" height="93" viewBox="0 0 152 93" fill="none" xmlns="http://www.w3.org/2000/svg">
<path d="M147.032 91.3359H150.981" stroke="#0042FF" stroke-width="2" stroke-miterlimit="10" stroke-linecap="round"/>
<path d="M1.47974 91.3359H144.583" stroke="#323233" stroke-width="2" stroke-linecap="round" stroke-linejoin="round"/>
<path d="M67.7588 68.6615H71.7455L70.2505 78.6283H67.7588" stroke="black" stroke-width="2" stroke-linecap="round" stroke-linejoin="round"/>
<path d="M111.523 39.3118C117.765 39.3118 122.825 44.3725 122.825 50.6142C122.825 56.8558 117.765 61.9165 111.523 61.9165" stroke="#0042FF" stroke-width="2" stroke-miterlimit="10" stroke-linecap="round"/>
<path d="M133.066 50.5618H126.717" stroke="#0042FF" stroke-width="2" stroke-miterlimit="10" stroke-linecap="round"/>
<path d="M129.879 38.6415L125.389 43.1042" stroke="black" stroke-width="2" stroke-linecap="round" stroke-linejoin="round"/>
<path d="M129.879 62.4821L125.389 58.0195" stroke="black" stroke-width="2" stroke-linecap="round" stroke-linejoin="round"/>
<path d="M50.2247 55.5327C47.5088 55.5327 45.3086 53.3326 45.3086 50.6166C45.3086 47.9007 47.5088 45.7005 50.2247 45.7005" stroke="black" stroke-width="2" stroke-linecap="round" stroke-linejoin="round"/>
<path d="M40.9656 71.2304V74.4572" stroke="#0042FF" stroke-width="2" stroke-linecap="round" stroke-linejoin="round"/>
<path d="M35.8027 76.3932H39.0295" stroke="#0042FF" stroke-width="2" stroke-linecap="round" stroke-linejoin="round"/>
<path d="M40.9656 81.5585V78.3293" stroke="#0042FF" stroke-width="2" stroke-linecap="round" stroke-linejoin="round"/>
<path d="M46.1308 76.3932H42.9016" stroke="#0042FF" stroke-width="2" stroke-linecap="round" stroke-linejoin="round"/>
<path d="M27.1118 55.8542V59.0809" stroke="#323233" stroke-width="2" stroke-linecap="round" stroke-linejoin="round"/>
<path d="M21.9465 61.0195H25.1733" stroke="#323233" stroke-width="2" stroke-linecap="round" stroke-linejoin="round"/>
<path d="M27.1118 66.1822V62.9555" stroke="#323233" stroke-width="2" stroke-linecap="round" stroke-linejoin="round"/>
<path d="M32.2746 61.0195H29.0479" stroke="#323233" stroke-width="2" stroke-linecap="round" stroke-linejoin="round"/>
<path d="M127.024 15.6806V18.9073" stroke="#323233" stroke-width="2" stroke-linecap="round" stroke-linejoin="round"/>
<path d="M121.858 20.8434H125.085" stroke="#323233" stroke-width="2" stroke-linecap="round" stroke-linejoin="round"/>
<path d="M127.024 26.0087V22.7819" stroke="#323233" stroke-width="2" stroke-linecap="round" stroke-linejoin="round"/>
<path d="M132.186 20.8434H128.96" stroke="#323233" stroke-width="2" stroke-linecap="round" stroke-linejoin="round"/>
<path d="M78.9215 38.0062H50.4739V63.2271H78.9215V38.0062Z" stroke="black" stroke-width="2" stroke-linecap="round" stroke-linejoin="round"/>
<path d="M103.507 75.1997L78.9216 61.1515V40.0792L103.507 26.0311V75.1997Z" stroke="black" stroke-width="2" stroke-linecap="round" stroke-linejoin="round"/>
<path d="M111.234 21.8176H103.507V79.4131H111.234V21.8176Z" stroke="black" stroke-width="2" stroke-linecap="round" stroke-linejoin="round"/>
<path d="M57.543 63.429V91.3359" stroke="black" stroke-width="2" stroke-linecap="round" stroke-linejoin="round"/>
<path d="M67.5098 63.429V91.3359" stroke="black" stroke-width="2" stroke-linecap="round" stroke-linejoin="round"/>
<path d="M35.4913 17.8658C40.6516 17.8658 44.8351 22.0494 44.8351 27.2097C44.8351 28.7894 44.4389 30.2745 43.7487 31.5776L46.3326 35.8683L40.8958 34.8268L40.9032 34.8168C39.3758 35.9057 37.512 36.5511 35.4938 36.5511C30.3335 36.5511 26.1499 32.3675 26.1499 27.2072C26.1499 22.0469 30.3335 17.8633 35.4938 17.8633L35.4913 17.8658Z" fill="white" stroke="#323233" stroke-width="2" stroke-linecap="round" stroke-linejoin="round"/>
<path d="M32.043 25.7769H38.7631" stroke="#323233" stroke-width="2" stroke-linecap="round" stroke-linejoin="round"/>
<path d="M32.043 29.2628H38.7631" stroke="#323233" stroke-width="2" stroke-linecap="round" stroke-linejoin="round"/>
<path d="M79.1011 1.38574C73.0413 1.38574 68.1302 6.29687 68.1302 12.3567C68.1302 14.2105 68.5936 15.9547 69.4059 17.4846L66.3735 22.5228L72.7573 21.3019L72.7498 21.2894C74.5438 22.5676 76.7315 23.3276 79.1036 23.3276C85.1634 23.3276 90.0745 18.4165 90.0745 12.3567C90.0745 6.29687 85.1609 1.38574 79.1011 1.38574Z" stroke="#323233" stroke-width="2" stroke-linecap="round" stroke-linejoin="round"/>
<path d="M75.468 10.8542H82.1956" stroke="#323233" stroke-width="2" stroke-linecap="round" stroke-linejoin="round"/>
<path d="M75.4556 14.3425H82.1831" stroke="#323233" stroke-width="2" stroke-linecap="round" stroke-linejoin="round"/>
</svg>
