<svg width="152" height="94" viewBox="0 0 152 94" fill="none" xmlns="http://www.w3.org/2000/svg">
<path d="M146.828 92.3361H150.774" stroke="#0042FF" stroke-width="2" stroke-miterlimit="10" stroke-linecap="round"/>
<path d="M1.39355 92.3361H144.38" stroke="#323233" stroke-width="2" stroke-linecap="round" stroke-linejoin="round"/>
<path d="M41.6143 33.4131V22.5407H74.7019V45.3984" stroke="#323233" stroke-width="2" stroke-linecap="round" stroke-linejoin="round"/>
<path d="M41.6143 40.2199V35.5717" stroke="#0042FF" stroke-width="2" stroke-miterlimit="10" stroke-linecap="round"/>
<path d="M41.6143 92.3361V42.8738" stroke="#323233" stroke-width="2" stroke-linecap="round" stroke-linejoin="round"/>
<path d="M49.3521 92.3361V83.2737H65.7092V92.3361" stroke="#323233" stroke-width="2" stroke-linecap="round" stroke-linejoin="round"/>
<path d="M50.0889 36.697V76.4993" stroke="#323233" stroke-width="2" stroke-linecap="round" stroke-linejoin="round"/>
<path d="M58.0459 36.697V76.4993" stroke="#323233" stroke-width="2" stroke-linecap="round" stroke-linejoin="round"/>
<path d="M66.0054 36.697V76.4993" stroke="#323233" stroke-width="2" stroke-linecap="round" stroke-linejoin="round"/>
<path d="M41.6143 28.5483H74.7019" stroke="#323233" stroke-width="2" stroke-linecap="round" stroke-linejoin="round"/>
<path d="M70.4519 92.3361V45.5278H99.7951V92.3361" stroke="#323233" stroke-width="2" stroke-linecap="round" stroke-linejoin="round"/>
<path d="M80.9832 59.0143V85.0314" stroke="#323233" stroke-width="2" stroke-linecap="round" stroke-linejoin="round"/>
<path d="M89.936 59.0143V85.0314" stroke="#323233" stroke-width="2" stroke-linecap="round" stroke-linejoin="round"/>
<path d="M70.4519 51.3337H99.7951" stroke="#323233" stroke-width="2" stroke-linecap="round" stroke-linejoin="round"/>
<path d="M28.7799 47.3827C31.3393 47.3976 33.4256 45.3362 33.4406 42.7768C33.4555 40.2174 31.3941 38.1311 28.8347 38.1161C28.7102 38.1161 28.5907 38.1236 28.4687 38.1335C28.5334 37.7949 28.5733 37.4464 28.5757 37.0879C28.5932 33.9609 26.0736 31.4114 22.9466 31.394C20.2876 31.3791 18.0544 33.199 17.4295 35.6663C16.72 35.1484 15.8511 34.8397 14.9075 34.8322C12.5149 34.8173 10.5655 36.7468 10.5506 39.1369C10.5506 39.4282 10.5779 39.7145 10.6302 39.9908C10.4684 39.9684 10.3016 39.951 10.1323 39.951C8.11068 39.9386 6.46003 41.5693 6.44758 43.5909C6.43513 45.6125 8.06586 47.2632 10.0875 47.2756" fill="white"/>
<path d="M28.7799 47.3827C31.3393 47.3976 33.4256 45.3362 33.4406 42.7768C33.4555 40.2174 31.3941 38.1311 28.8347 38.1161C28.7102 38.1161 28.5907 38.1236 28.4687 38.1335C28.5334 37.7949 28.5733 37.4464 28.5757 37.0879C28.5932 33.9609 26.0736 31.4114 22.9466 31.394C20.2876 31.3791 18.0544 33.199 17.4295 35.6663C16.72 35.1484 15.8511 34.8397 14.9075 34.8322C12.5149 34.8173 10.5655 36.7468 10.5506 39.1369C10.5506 39.4282 10.5779 39.7145 10.6302 39.9908C10.4684 39.9684 10.3016 39.951 10.1323 39.951C8.11068 39.9386 6.46003 41.5693 6.44758 43.5909C6.43513 45.6125 8.06586 47.2632 10.0875 47.2756" stroke="#323233" stroke-width="2" stroke-linecap="round" stroke-linejoin="round"/>
<path d="M131.648 71.7142H149.745" stroke="#323233" stroke-width="2" stroke-linecap="round" stroke-linejoin="round"/>
<path d="M143.598 77.3483H150.086" stroke="#323233" stroke-width="2" stroke-linecap="round" stroke-linejoin="round"/>
<path d="M26.467 58.9795H32.7833" stroke="#323233" stroke-width="2" stroke-linecap="round" stroke-linejoin="round"/>
<path d="M20.2354 53.2035H31.7028" stroke="#323233" stroke-width="2" stroke-linecap="round" stroke-linejoin="round"/>
<path d="M108.175 10.9937L124.059 18.9332L124.067 92.3361" stroke="black" stroke-width="2" stroke-linecap="round" stroke-linejoin="round"/>
<path d="M112.151 23.8329L120.091 23.8304" stroke="black" stroke-width="2" stroke-linecap="round" stroke-linejoin="round"/>
<path d="M112.151 28.73H120.091" stroke="black" stroke-width="2" stroke-linecap="round" stroke-linejoin="round"/>
<path d="M112.151 33.6272H120.091" stroke="black" stroke-width="2" stroke-linecap="round" stroke-linejoin="round"/>
<path d="M92.2315 23.788L92.229 45.1643" stroke="black" stroke-width="2" stroke-linecap="round" stroke-linejoin="round"/>
<path d="M92.2317 16.1522V21.1316" stroke="#0042FF" stroke-width="2" stroke-miterlimit="10" stroke-linecap="round"/>
<path d="M108.113 92.3361V1.4632L92.2317 9.40524V13.9937" stroke="black" stroke-width="2" stroke-linecap="round" stroke-linejoin="round"/>
<path d="M104.142 14.3024H96.2002" stroke="black" stroke-width="2" stroke-linecap="round" stroke-linejoin="round"/>
<path d="M104.142 19.1996H96.2002" stroke="black" stroke-width="2" stroke-linecap="round" stroke-linejoin="round"/>
<path d="M104.142 24.0967H96.2002" stroke="black" stroke-width="2" stroke-linecap="round" stroke-linejoin="round"/>
<path d="M139.192 64.8178C141.821 64.8327 143.967 62.714 143.982 60.0849C143.997 57.4558 141.878 55.3097 139.249 55.2948C139.122 55.2948 138.997 55.3022 138.873 55.3122C138.94 54.9637 138.98 54.6051 138.983 54.2367C139.002 51.0225 136.411 48.4034 133.199 48.386C130.468 48.371 128.172 50.2408 127.53 52.7752C126.803 52.2449 125.909 51.9238 124.938 51.9188C122.481 51.9039 120.477 53.8856 120.462 56.3429C120.462 56.6442 120.489 56.9355 120.544 57.2218C120.377 57.1969 120.208 57.1819 120.034 57.1795C117.955 57.167 116.259 58.8426 116.249 60.9214C116.237 63.0003 117.912 64.6958 119.991 64.7057L129.121 64.758" fill="white"/>
<path d="M139.192 64.8178C141.821 64.8327 143.967 62.714 143.982 60.0849C143.997 57.4558 141.878 55.3097 139.249 55.2948C139.122 55.2948 138.997 55.3022 138.873 55.3122C138.94 54.9637 138.98 54.6051 138.983 54.2367C139.002 51.0225 136.411 48.4034 133.199 48.386C130.468 48.371 128.172 50.2408 127.53 52.7752C126.803 52.2449 125.909 51.9238 124.938 51.9188C122.481 51.9039 120.477 53.8856 120.462 56.3429C120.462 56.6442 120.489 56.9355 120.544 57.2218C120.377 57.1969 120.208 57.1819 120.034 57.1795C117.955 57.167 116.259 58.8426 116.249 60.9214C116.237 63.0003 117.912 64.6958 119.991 64.7057L129.121 64.758" stroke="#323233" stroke-width="2" stroke-linecap="round" stroke-linejoin="round"/>
<path d="M16.5681 81.8795C16.959 82.7583 16.5382 83.8015 15.627 84.2048C14.7158 84.6106 13.6602 84.2272 13.2693 83.3459C12.8784 82.467 13.2992 81.4239 14.2104 81.0205C15.1216 80.6147 16.1772 80.9981 16.5681 81.8795Z" stroke="#0042FF" stroke-width="2" stroke-linecap="round" stroke-linejoin="round"/>
<path d="M23.9424 79.6737C24.1789 80.6073 23.5864 81.5608 22.6204 81.8073C21.6544 82.0513 20.6784 81.4936 20.4419 80.5625C20.2054 79.6313 20.7979 78.6753 21.7639 78.4288C22.7299 78.1848 23.7059 78.7425 23.9424 79.6737Z" stroke="#0042FF" stroke-width="2" stroke-linecap="round" stroke-linejoin="round"/>
<path d="M16.5657 81.8919V72.1772L23.8405 70.2228V79.4222" stroke="#0042FF" stroke-width="2" stroke-linecap="round" stroke-linejoin="round"/>
<path d="M16.842 75.5956C17.0064 75.5408 23.6737 73.7507 23.6737 73.7507" stroke="#0042FF" stroke-width="2" stroke-linecap="round" stroke-linejoin="round"/>
<path d="M146.292 46.5187C146.491 46.9644 146.277 47.4922 145.814 47.6963C145.354 47.9005 144.818 47.7063 144.619 47.2606C144.42 46.815 144.634 46.2872 145.097 46.083C145.558 45.8789 146.093 46.0731 146.292 46.5187Z" stroke="#0042FF" stroke-width="2" stroke-linecap="round" stroke-linejoin="round"/>
<path d="M146.292 46.5262V41.6066L149.974 40.6157" stroke="#0042FF" stroke-width="2" stroke-linecap="round" stroke-linejoin="round"/>
<path d="M146.432 43.3369C146.516 43.3096 149.892 42.4033 149.892 42.4033" stroke="#0042FF" stroke-width="2" stroke-linecap="round" stroke-linejoin="round"/>
<path d="M59.1538 11.4144C59.353 11.8601 59.1388 12.3879 58.6758 12.592C58.2152 12.7962 57.6799 12.602 57.4807 12.1563C57.2815 11.7107 57.4957 11.1829 57.9587 10.9787C58.4193 10.7746 58.9546 10.9688 59.1538 11.4144Z" stroke="#0042FF" stroke-width="2" stroke-linecap="round" stroke-linejoin="round"/>
<path d="M59.1538 11.4219V6.5023L62.836 5.51141" stroke="#0042FF" stroke-width="2" stroke-linecap="round" stroke-linejoin="round"/>
<path d="M59.2932 8.23258C59.3779 8.20519 62.7539 7.29895 62.7539 7.29895" stroke="#0042FF" stroke-width="2" stroke-linecap="round" stroke-linejoin="round"/>
<path d="M147.223 8.09071C146.808 7.15459 147.256 6.0442 148.227 5.611C149.198 5.1778 150.323 5.58859 150.739 6.52471C151.155 7.46082 150.706 8.57122 149.735 9.00442C148.764 9.43762 147.639 9.02682 147.223 8.09071Z" stroke="black" stroke-width="2" stroke-linecap="round" stroke-linejoin="round"/>
<path d="M139.366 10.4409C139.114 9.44753 139.744 8.42926 140.775 8.16784C141.806 7.90643 142.844 8.50146 143.095 9.49484C143.347 10.4882 142.717 11.5065 141.686 11.7679C140.655 12.0293 139.617 11.4343 139.366 10.4409Z" stroke="black" stroke-width="2" stroke-linecap="round" stroke-linejoin="round"/>
<path d="M147.226 8.07574V18.4278L139.476 20.5116V10.7073" stroke="black" stroke-width="2" stroke-linecap="round" stroke-linejoin="round"/>
<path d="M146.932 14.7854C146.755 14.8427 139.652 16.7522 139.652 16.7522" stroke="black" stroke-width="2" stroke-linecap="round" stroke-linejoin="round"/>
<path d="M38.3527 11.138C37.2872 11.1754 36.4531 12.0692 36.4905 13.1348C36.5278 14.2003 37.4216 15.0344 38.4872 14.997C39.5528 14.9597 40.3868 14.0659 40.3494 13.0003C40.3121 11.9347 39.4183 11.1007 38.3527 11.138Z" stroke="#0042FF" stroke-width="2" stroke-linecap="round" stroke-linejoin="round"/>
<path d="M83.4653 22.4187V25.0652" stroke="#0042FF" stroke-width="2" stroke-miterlimit="10" stroke-linecap="round"/>
<path d="M79.2329 26.6512H81.8769" stroke="#0042FF" stroke-width="2" stroke-miterlimit="10" stroke-linecap="round"/>
<path d="M83.4653 30.8836V28.2396" stroke="#0042FF" stroke-width="2" stroke-miterlimit="10" stroke-linecap="round"/>
<path d="M87.6978 26.6512H85.0513" stroke="#0042FF" stroke-width="2" stroke-miterlimit="10" stroke-linecap="round"/>
<path d="M12.261 11.9621V14.6086" stroke="#0042FF" stroke-width="2" stroke-miterlimit="10" stroke-linecap="round"/>
<path d="M8.02856 16.1946H10.6726" stroke="#0042FF" stroke-width="2" stroke-miterlimit="10" stroke-linecap="round"/>
<path d="M12.261 20.427V17.783" stroke="#0042FF" stroke-width="2" stroke-miterlimit="10" stroke-linecap="round"/>
<path d="M16.4934 16.1946H13.8469" stroke="#0042FF" stroke-width="2" stroke-miterlimit="10" stroke-linecap="round"/>
</svg>
