<svg width="152" height="103" viewBox="0 0 152 103" fill="none" xmlns="http://www.w3.org/2000/svg">
<path d="M146.946 94.394H150.895" stroke="#0042FF" stroke-width="2" stroke-linecap="round" stroke-linejoin="round"/>
<path d="M1.3938 94.394H144.497" stroke="#323233" stroke-width="2" stroke-linecap="round" stroke-linejoin="round"/>
<path d="M146.946 94.394H150.895" stroke="#0042FF" stroke-width="2" stroke-linecap="round" stroke-linejoin="round"/>
<path d="M1.3938 94.394H144.497" stroke="#323233" stroke-width="2" stroke-linecap="round" stroke-linejoin="round"/>
<path d="M26.0017 65.6199H112.588C112.907 65.6199 113.166 65.3084 113.166 64.9247V2.61242C113.166 2.2287 112.907 1.91724 112.588 1.91724H88.1968C88.0374 1.91724 87.8854 1.99697 87.7782 2.13651L78.2251 9.81591C78.1154 9.95544 77.9635 10.0352 77.8065 10.0352H26.0017C25.6827 10.0352 25.4236 10.3466 25.4236 10.7304V64.9297C25.4236 65.3134 25.6827 65.6249 26.0017 65.6249V65.6199Z" fill="#F0F2F5" stroke="#323233" stroke-width="2" stroke-linecap="round" stroke-linejoin="round"/>
<path d="M34.501 35.4081V73.6456C34.501 76.1523 32.8091 78.3948 30.305 78.3948C27.7983 78.3948 25.4287 76.4014 25.4287 73.8948V35.4081" fill="#F0F2F5"/>
<path d="M34.501 35.4081V73.6456C34.501 76.1523 32.8091 78.3948 30.305 78.3948C27.7983 78.3948 25.4287 76.4014 25.4287 73.8948V35.4081" stroke="#323233" stroke-width="2" stroke-linecap="round" stroke-linejoin="round"/>
<path d="M116.229 64.0177H41.4204C41.1264 64.0177 40.8896 46.1149 40.8896 45.8508V7.34664C40.8896 7.08501 41.1264 6.87073 41.4204 6.87073H116.229C116.523 6.87073 116.759 7.08252 116.759 7.34664V45.8508C116.759 46.1124 116.523 64.0177 116.229 64.0177Z" fill="white" stroke="black" stroke-width="2" stroke-linecap="round" stroke-linejoin="round"/>
<path d="M108.402 14.9064H49.2468V28.4538H108.402V14.9064Z" fill="#F0F2F5"/>
<path d="M108.522 32.732H49.3665V34.6332H108.522V32.732Z" fill="#F0F2F5"/>
<path d="M108.522 38.4355H49.3665V40.3366H108.522V38.4355Z" fill="#F0F2F5"/>
<path d="M72.9279 101.336C76.7811 101.336 79.9047 98.2122 79.9047 94.3591C79.9047 90.5059 76.7811 87.3823 72.9279 87.3823C69.0748 87.3823 65.9512 90.5059 65.9512 94.3591C65.9512 98.2122 69.0748 101.336 72.9279 101.336Z" fill="white" stroke="black" stroke-width="2" stroke-linecap="round" stroke-linejoin="round"/>
<path d="M72.9278 90.8707C74.8539 90.8707 76.4162 92.433 76.4162 94.3591C76.4162 96.2852 74.8539 97.8475 72.9278 97.8475C71.0017 97.8475 69.4395 96.2852 69.4395 94.3591" fill="white"/>
<path d="M72.9278 90.8707C74.8539 90.8707 76.4162 92.433 76.4162 94.3591C76.4162 96.2852 74.8539 97.8475 72.9278 97.8475C71.0017 97.8475 69.4395 96.2852 69.4395 94.3591" stroke="black" stroke-width="2" stroke-linecap="round" stroke-linejoin="round"/>
<path d="M72.9277 87.3823V78.4122" stroke="black" stroke-width="2" stroke-linecap="round" stroke-linejoin="round"/>
<path d="M14.5999 50.9363H17.6322" stroke="#0042FF" stroke-width="2" stroke-miterlimit="10" stroke-linecap="round"/>
<path d="M14.3506 57.923H35.53" stroke="#323233" stroke-width="2" stroke-linecap="round" stroke-linejoin="round"/>
<path d="M20.1763 50.9363H30.766" stroke="#323233" stroke-width="2" stroke-linecap="round" stroke-linejoin="round"/>
<path d="M134.139 51.0036V53.6498" stroke="#0042FF" stroke-width="2" stroke-miterlimit="10" stroke-linecap="round"/>
<path d="M129.903 55.2395H132.552" stroke="#0042FF" stroke-width="2" stroke-miterlimit="10" stroke-linecap="round"/>
<path d="M134.139 59.4754V56.8292" stroke="#0042FF" stroke-width="2" stroke-miterlimit="10" stroke-linecap="round"/>
<path d="M138.375 55.2395H135.726" stroke="#0042FF" stroke-width="2" stroke-miterlimit="10" stroke-linecap="round"/>
<path d="M121.376 23.0269C121.364 22.7852 121.165 22.5958 120.923 22.5958H96.9976L87.3747 30.3201H35.079C34.7601 30.3201 34.5009 30.6315 34.5009 31.0153V73.8973C34.5009 76.1349 32.4353 78.0261 30.3049 78.3973H116.822C119.318 78.3973 121.346 76.3815 121.359 73.8849C121.424 61.4364 121.576 27.2553 121.379 23.0269H121.376Z" fill="white" stroke="black" stroke-width="2" stroke-linecap="round" stroke-linejoin="round"/>
<path d="M115.424 46.9746L128.425 36.5742H135.706" stroke="#323233" stroke-width="2" stroke-linecap="round" stroke-linejoin="round"/>
<path d="M131.024 33.4546H135.706" stroke="#323233" stroke-width="2" stroke-linecap="round" stroke-linejoin="round"/>
</svg>
