<svg width="152" height="87" viewBox="0 0 152 87" fill="none" xmlns="http://www.w3.org/2000/svg">
<path d="M96.8186 68.6149H30.03C29.53 68.6149 29.1221 68.207 29.1221 67.707V2.23682C29.1221 1.73682 29.53 1.32886 30.03 1.32886H35.239" stroke="#323233" stroke-width="2" stroke-linecap="round" stroke-linejoin="round"/>
<path d="M45.0276 1.32886H120.786C121.286 1.32886 121.694 1.73682 121.694 2.23682V24.6274" stroke="#323233" stroke-width="2" stroke-linecap="round" stroke-linejoin="round"/>
<path d="M38.0947 1.32886H42.1718" stroke="#0042FF" stroke-width="2" stroke-linecap="round" stroke-linejoin="round"/>
<path d="M65.4182 68.6149L61.3386 85.3363" stroke="#323233" stroke-width="2" stroke-linecap="round" stroke-linejoin="round"/>
<path d="M86.6221 68.6149L90.7017 85.3363" stroke="#323233" stroke-width="2" stroke-linecap="round" stroke-linejoin="round"/>
<path d="M146.704 85.3363H150.647" stroke="#0042FF" stroke-width="2" stroke-miterlimit="10" stroke-linecap="round"/>
<path d="M1.39331 85.3363H144.259" stroke="#323233" stroke-width="2" stroke-linecap="round" stroke-linejoin="round"/>
<path d="M29.53 58.4209H101.739" stroke="#323233" stroke-width="2" stroke-linecap="round" stroke-linejoin="round"/>
<path d="M62.9755 39.2941L57.0078 41.1L57.4058 34.8737" stroke="#323233" stroke-width="2" stroke-linecap="round" stroke-linejoin="round"/>
<path d="M62.9754 39.294L75.6446 23.3089C75.8983 22.988 75.8436 22.5154 75.5227 22.2617L71.1222 18.7841C70.8013 18.5303 70.3286 18.5851 70.0749 18.906L57.4058 34.8711L62.9754 39.2915V39.294Z" stroke="#323233" stroke-width="2" stroke-linecap="round" stroke-linejoin="round"/>
<path d="M130.378 77.9085C132.955 77.9085 135.042 75.8214 135.042 73.2443V35.4657C135.042 35.4657 135.042 35.406 135.042 35.304V31.6896C135.042 30.1622 136.008 28.8637 137.393 28.3612H107.605C101.234 28.3612 101.873 35.4657 101.873 35.4657V65.5652" stroke="#323233" stroke-width="2" stroke-linecap="round" stroke-linejoin="round"/>
<path d="M101.356 77.9085H130.035C127.458 77.9085 125.371 75.8214 125.371 73.2443V65.8612H96.6919V73.2443C96.6919 75.8214 98.779 77.9085 101.356 77.9085Z" fill="#E6EAED" stroke="#323233" stroke-width="2" stroke-linecap="round" stroke-linejoin="round"/>
<path d="M108.898 45.1348H128.018" stroke="#323233" stroke-width="2" stroke-linecap="round" stroke-linejoin="round"/>
<path d="M108.898 40.1597H128.018" stroke="#323233" stroke-width="2" stroke-linecap="round" stroke-linejoin="round"/>
<path d="M111.431 50.1697H125.485" stroke="#323233" stroke-width="2" stroke-linecap="round" stroke-linejoin="round"/>
<path d="M141.261 38.3811V31.2318C141.261 29.5826 139.861 28.2468 138.152 28.2468C136.443 28.2468 135.042 29.5826 135.042 31.2318V38.3811H141.261Z" fill="#E6EAED" stroke="#323233" stroke-width="2" stroke-linecap="round" stroke-linejoin="round"/>
<path d="M56.8535 41.2941H85.3983" stroke="#323233" stroke-width="2" stroke-linecap="round" stroke-linejoin="round"/>
<path d="M71.5352 36.6448H92.3312" stroke="#0042FF" stroke-width="2" stroke-linecap="round" stroke-linejoin="round"/>
</svg>
