<svg width="40" height="41" viewBox="0 0 40 41" fill="none" xmlns="http://www.w3.org/2000/svg">
<g clip-path="url(#clip0_0_267)">
<path d="M19.9844 40.3955C14.6392 40.3955 9.61709 38.3138 5.84527 34.5355C-1.94842 26.7395 -1.94842 14.0515 5.84527 6.25551C9.62751 2.47721 14.6496 0.395508 19.9844 0.395508C25.3295 0.395508 30.3517 2.47721 34.1235 6.25551C39.5415 11.6784 41.3858 19.568 38.9164 26.8332C38.8122 27.135 38.708 27.4369 38.583 27.7283C38.2704 28.5298 37.3639 28.9253 36.5616 28.613C35.7593 28.3008 35.3634 27.3952 35.676 26.5938C35.7697 26.344 35.8635 26.0942 35.9573 25.834C38.0412 19.6929 36.4887 13.0419 31.9146 8.46212C28.7262 5.27711 24.496 3.51807 19.9844 3.51807C15.4832 3.51807 11.2425 5.27711 8.05418 8.46212C1.47955 15.0403 1.47955 25.7507 8.05418 32.3289C11.2425 35.5139 15.4728 37.2729 19.9844 37.2729C24.4855 37.2729 28.7262 35.5139 31.9146 32.3289C32.5293 31.7148 33.5191 31.7148 34.1235 32.3289C34.7382 32.943 34.7382 33.9318 34.1235 34.5355C30.3517 38.3138 25.3295 40.3955 19.9844 40.3955Z" fill="#1C2338"/>
<path d="M28.049 24.0125H19.9948C19.13 24.0125 18.4319 23.3151 18.4319 22.4512C18.4319 21.5873 19.13 20.8899 19.9948 20.8899H28.049C28.9138 20.8899 29.6119 21.5873 29.6119 22.4512C29.6119 23.3151 28.9138 24.0125 28.049 24.0125Z" fill="#487CFF"/>
<path d="M20.0053 24.0125C19.1405 24.0125 18.4424 23.3152 18.4424 22.4513V14.7385C18.4424 13.8746 19.1405 13.1772 20.0053 13.1772C20.8701 13.1772 21.5682 13.8746 21.5682 14.7385V22.4513C21.5682 23.3152 20.8701 24.0125 20.0053 24.0125Z" fill="#487CFF"/>
</g>
<defs>
<clipPath id="clip0_0_267">
<rect width="40" height="40" fill="white" transform="translate(0 0.395508)"/>
</clipPath>
</defs>
</svg>
