<svg width="17" height="17" viewBox="0 0 17 17" fill="none" xmlns="http://www.w3.org/2000/svg">
<path d="M7.16732 11.1665H9.83398C10.2007 11.1665 10.5007 10.8665 10.5007 10.4998V7.16648H11.5607C12.154 7.16648 12.454 6.44648 12.034 6.02648L8.97398 2.96648C8.71398 2.70648 8.29398 2.70648 8.03398 2.96648L4.97398 6.02648C4.55398 6.44648 4.84732 7.16648 5.44065 7.16648H6.50065V10.4998C6.50065 10.8665 6.80065 11.1665 7.16732 11.1665ZM4.50065 12.4998H12.5007C12.8673 12.4998 13.1673 12.7998 13.1673 13.1665C13.1673 13.5332 12.8673 13.8332 12.5007 13.8332H4.50065C4.13398 13.8332 3.83398 13.5332 3.83398 13.1665C3.83398 12.7998 4.13398 12.4998 4.50065 12.4998Z" fill="#3A3A3A"/>
</svg>
