<svg width="26" height="25" viewBox="0 0 26 25" fill="none" xmlns="http://www.w3.org/2000/svg">
<path d="M1.77179 19.5834C1.50656 19.5834 1.24132 19.4746 1.0509 19.2841C0.819669 19.0529 0.710855 18.7265 0.765262 18.4068L1.73779 12.1704C1.77179 11.9596 1.8738 11.7556 2.02342 11.606L11.1366 2.49279C11.5378 2.09154 12.1839 2.09154 12.5784 2.49279L17.8422 7.75667C18.0327 7.94709 18.1415 8.20552 18.1415 8.47756C18.1415 8.74959 18.0327 9.00803 17.8422 9.19845L8.72908 18.3116C8.57946 18.4612 8.37544 18.5632 8.16461 18.5973L1.92821 19.5766C1.8806 19.5834 1.8262 19.5834 1.77179 19.5834ZM3.70324 12.8165L2.99595 17.3391L7.51853 16.6318L15.6728 8.47756L11.8575 4.66227L3.70324 12.8165Z" fill="white"/>
<path d="M1.77179 19.5834C1.50656 19.5834 1.24132 19.4746 1.0509 19.2841C0.819669 19.0529 0.710855 18.7265 0.765262 18.4068L1.29573 14.986C1.35694 14.6051 1.62217 14.2923 1.98942 14.1699C2.35667 14.0543 2.75792 14.1495 3.02995 14.4215L5.92032 17.3119C6.19236 17.5839 6.28757 17.9852 6.17195 18.3524C6.05634 18.7197 5.7367 18.9849 5.36265 19.0461L1.92821 19.5766C1.8806 19.5834 1.8262 19.5834 1.77179 19.5834ZM3.00275 17.2847L2.99595 17.3391L3.05035 17.3323L3.00275 17.2847Z" fill="white"/>
<path d="M17.1214 9.50449C16.8494 9.50449 16.5909 9.39568 16.4005 9.20525L11.1366 3.94138C10.7354 3.54013 10.7354 2.89404 11.1366 2.49959L12.456 1.18022C13.5781 0.0580795 15.4076 0.0580795 16.5297 1.18022L19.1617 3.81216C19.7057 4.35623 20.005 5.07712 20.005 5.85242C20.005 6.62092 19.7057 7.34861 19.1617 7.89268L17.8423 9.21205C17.6519 9.39568 17.3934 9.50449 17.1214 9.50449ZM13.2993 3.22048L17.1214 7.04257L17.7199 6.4441C17.8763 6.28768 17.9647 6.07685 17.9647 5.84562C17.9647 5.62119 17.8763 5.41037 17.7199 5.24714L15.0879 2.61521C14.7615 2.28877 14.2242 2.28877 13.8978 2.61521L13.2993 3.22048Z" fill="white"/>
<path d="M24.4799 24.3372H1.52013C0.955658 24.3372 0.5 23.8815 0.5 23.3171C0.5 22.7526 0.955658 22.2969 1.52013 22.2969H24.4799C25.0443 22.2969 25.5 22.7526 25.5 23.3171C25.5 23.8747 25.0443 24.3372 24.4799 24.3372Z" fill="white"/>
</svg>
