<svg width="18" height="18" viewBox="0 0 18 18" fill="none" xmlns="http://www.w3.org/2000/svg">
<path d="M1.05235 1.14839C1.53985 0.660889 2.32735 0.660889 2.81485 1.14839L8.92735 7.24839L15.0398 1.13589C15.5273 0.648389 16.3148 0.648389 16.8023 1.13589C17.2898 1.62339 17.2898 2.41089 16.8023 2.89839L10.6898 9.01089L16.8023 15.1234C17.2898 15.6109 17.2898 16.3984 16.8023 16.8859C16.3148 17.3734 15.5273 17.3734 15.0398 16.8859L8.92735 10.7734L2.81485 16.8859C2.32735 17.3734 1.53985 17.3734 1.05235 16.8859C0.564848 16.3984 0.564848 15.6109 1.05235 15.1234L7.16485 9.01089L1.05235 2.89839C0.577348 2.42339 0.577348 1.62339 1.05235 1.14839Z" fill="#252525"/>
</svg>
